<svg width="48" height="48" viewBox="0 0 48 48" fill="none" xmlns="http://www.w3.org/2000/svg">
<rect width="48" height="48" rx="24" fill="#BCE0FD"/>
<path d="M32 32V25M24 32V22M16 32L16 28M25.4067 17.0275L30.5751 18.9657M22.7988 17.4009L17.2002 21.5998M33.0607 18.4393C33.6464 19.0251 33.6464 19.9749 33.0607 20.5607C32.4749 21.1464 31.5251 21.1464 30.9393 20.5607C30.3536 19.9749 30.3536 19.0251 30.9393 18.4393C31.5251 17.8536 32.4749 17.8536 33.0607 18.4393ZM17.0607 21.4393C17.6464 22.0251 17.6464 22.9749 17.0607 23.5607C16.4749 24.1464 15.5251 24.1464 14.9393 23.5607C14.3536 22.9749 14.3536 22.0251 14.9393 21.4393C15.5251 20.8536 16.4749 20.8536 17.0607 21.4393ZM25.0607 15.4393C25.6464 16.0251 25.6464 16.9749 25.0607 17.5607C24.4749 18.1464 23.5251 18.1464 22.9393 17.5607C22.3536 16.9749 22.3536 16.0251 22.9393 15.4393C23.5251 14.8536 24.4749 14.8536 25.0607 15.4393Z" stroke="#2699FB" stroke-width="2" stroke-linecap="round" stroke-linejoin="round"/>
</svg>
