<svg width="145" height="38" viewBox="0 0 145 38" fill="none" xmlns="http://www.w3.org/2000/svg">
<rect width="4.99905" height="4.9991" transform="matrix(0.866023 -0.500005 0 1 19.4024 17.5519)" fill="#2E90FA"/>
<rect width="4.99905" height="4.9991" transform="matrix(0.866023 -0.500005 0 1 24.5366 14.7145)" fill="#2E90FA"/>
<rect width="4.99905" height="4.9991" transform="matrix(0.866023 -0.500005 0 1 24.5366 20.4571)" fill="#F04438"/>
<rect width="4.99905" height="4.9991" transform="matrix(0.866023 -0.500005 0 1 29.6707 11.6071)" fill="#2E90FA"/>
<rect width="4.99905" height="4.99905" transform="matrix(-0.866023 -0.500005 0.866023 -0.500005 19.0029 16.9441)" fill="#2E90FA"/>
<rect width="4.99905" height="4.99905" transform="matrix(-0.866023 -0.500005 0.866023 -0.500005 13.8688 13.9716)" fill="#2E90FA"/>
<rect width="4.99905" height="4.99905" transform="matrix(-0.866023 -0.500005 0.866023 -0.500005 8.73462 10.9992)" fill="#2E90FA"/>
<rect width="4.99905" height="4.99905" transform="matrix(-0.866023 -0.500005 0.866023 -0.500005 24.137 13.9716)" fill="#2E90FA"/>
<rect width="4.99905" height="4.99905" transform="matrix(-0.866023 -0.500005 0.866023 -0.500005 29.2712 10.9992)" fill="#2E90FA"/>
<rect width="4.99905" height="4.9991" transform="matrix(-0.866023 -0.500005 0 1 18.5976 17.5519)" fill="#2E90FA"/>
<rect width="4.99905" height="4.9991" transform="matrix(-0.866023 -0.500005 0 1 13.4634 14.5795)" fill="#2E90FA"/>
<rect width="4.99905" height="4.9991" transform="matrix(-0.866023 -0.500005 0 1 13.4634 20.3893)" fill="#2E90FA"/>
<rect width="4.99905" height="4.9991" transform="matrix(-0.866023 -0.500005 0 1 8.32928 11.6071)" fill="#2E90FA"/>
<rect width="4.99905" height="4.9991" transform="matrix(0.866023 -0.500005 0 1 19.4024 23.3618)" fill="#2E90FA"/>
<rect width="4.99905" height="4.9991" transform="matrix(-0.866023 -0.500005 0 1 18.5976 23.3618)" fill="#2E90FA"/>
<rect width="4.99905" height="4.9991" transform="matrix(0.866023 -0.500005 0 1 19.4024 29.1716)" fill="#2E90FA"/>
<rect width="4.99905" height="4.9991" transform="matrix(-0.866023 -0.500005 0 1 18.5976 29.1716)" fill="#2E90FA"/>
<path d="M46.4062 29V7.18182H61.7472V11.9545H52.3295V15.7045H60.8097V20.4773H52.3295V29H46.4062ZM64.011 29V12.6364H69.8917V29H64.011ZM66.9513 10.9318C66.1559 10.9318 65.4741 10.669 64.9059 10.1435C64.3377 9.6179 64.0536 8.9858 64.0536 8.24716C64.0536 7.50852 64.3377 6.87642 64.9059 6.35085C65.4741 5.82528 66.1559 5.5625 66.9513 5.5625C67.7539 5.5625 68.4357 5.82528 68.9968 6.35085C69.565 6.87642 69.8491 7.50852 69.8491 8.24716C69.8491 8.9858 69.565 9.6179 68.9968 10.1435C68.4357 10.669 67.7539 10.9318 66.9513 10.9318ZM78.7686 7.18182V29H72.888V7.18182H78.7686Z" fill="#1875ED"/>
<path d="M81.6797 29V7.18182H97.0206V11.9545H87.603V15.7045H96.0831V20.4773H87.603V29H81.6797ZM99.2844 29V12.6364H105.165V29H99.2844ZM102.225 10.9318C101.429 10.9318 100.748 10.669 100.179 10.1435C99.6112 9.6179 99.3271 8.9858 99.3271 8.24716C99.3271 7.50852 99.6112 6.87642 100.179 6.35085C100.748 5.82528 101.429 5.5625 102.225 5.5625C103.027 5.5625 103.709 5.82528 104.27 6.35085C104.838 6.87642 105.123 7.50852 105.123 8.24716C105.123 8.9858 104.838 9.6179 104.27 10.1435C103.709 10.669 103.027 10.9318 102.225 10.9318Z" fill="#D92D20"/>
</svg>
