<svg width="106" height="48" viewBox="0 0 106 48" fill="none" xmlns="http://www.w3.org/2000/svg">
<path d="M58.52 34.7113V17.9596H70.2986V21.624H63.0678V24.5032H69.5788V28.1677H63.0678V34.7113H58.52Z" fill="#1875ED"/>
<path d="M72.0367 34.7113V22.1475H76.5518V34.7113H72.0367ZM74.2943 20.8388C73.6835 20.8388 73.1601 20.637 72.7238 20.2335C72.2876 19.83 72.0694 19.3447 72.0694 18.7776C72.0694 18.2104 72.2876 17.7251 72.7238 17.3216C73.1601 16.9181 73.6835 16.7163 74.2943 16.7163C74.9105 16.7163 75.434 16.9181 75.8648 17.3216C76.301 17.7251 76.5191 18.2104 76.5191 18.7776C76.5191 19.3447 76.301 19.83 75.8648 20.2335C75.434 20.637 74.9105 20.8388 74.2943 20.8388Z" fill="#1875ED"/>
<path d="M83.3674 17.9596V34.7113H78.8523V17.9596H83.3674Z" fill="#1875ED"/>
<rect x="86" y="16.8018" width="19.5" height="18" fill="#1875ED"/>
<path d="M89 32.5321V19.8377H97.9258V22.6146H92.4463V24.7964H97.3803V27.5733H92.4463V32.5321H89Z" fill="#1D2939"/>
<path d="M99.2429 32.5321V23.0113H102.664V32.5321H99.2429ZM100.954 22.0195C100.491 22.0195 100.094 21.8666 99.7636 21.5608C99.433 21.255 99.2677 20.8873 99.2677 20.4575C99.2677 20.0278 99.433 19.66 99.7636 19.3542C100.094 19.0484 100.491 18.8955 100.954 18.8955C101.421 18.8955 101.817 19.0484 102.144 19.3542C102.474 19.66 102.64 20.0278 102.64 20.4575C102.64 20.8873 102.474 21.255 102.144 21.5608C101.817 21.8666 101.421 22.0195 100.954 22.0195Z" fill="#1D2939"/>
<path fill-rule="evenodd" clip-rule="evenodd" d="M17.2697 25.1855C18.8665 22.1458 20.7117 19.2432 22.7865 16.5073C25.7194 20.5151 28.4067 24.7303 29.09 27.1411C29.2276 27.6271 29.3309 28.1218 29.3993 28.6217C31.2513 28.9111 32.9541 29.0553 34.4331 29.0557C35.3367 29.0559 36.1429 29.0025 36.8402 28.9007C36.7678 27.6297 36.5532 26.3699 36.1997 25.1449C35.8849 24.0085 34.9098 20.5381 28.7522 12.1462L22.7865 4L16.8208 12.1462C14.5949 15.0862 12.4823 18.4051 10.7476 21.6591C12.3809 22.8591 14.1915 23.7841 16.0271 24.6509C16.4309 24.8316 16.8453 25.01 17.2697 25.1855ZM27.5519 34.7968C30.613 35.4165 33.4735 35.7766 35.9843 35.8742C33.8399 39.2003 31.664 40.9465 29.0383 42.1777C27.0006 43.1623 24.7585 43.6498 22.4959 43.6004C20.2333 43.5509 18.0146 42.9659 16.0219 41.8932C14.0291 40.8206 12.3189 39.2909 11.0316 37.4295C9.71281 35.4853 8.40398 32.4377 8.79629 28.3067C11.0269 29.4667 13.5702 30.5835 16.334 31.5992C16.5033 32.1754 16.7644 32.7381 17.1355 33.2834C17.7647 34.1972 18.6096 34.9416 19.5953 35.4505C20.5811 35.9595 21.6772 36.2173 22.7864 36.201C25.6108 36.2454 26.7833 35.535 27.5519 34.7968Z" fill="#1875ED"/>
<path d="M39.1557 24.6304C40.2536 25.759 40.745 26.8262 40.4763 27.7015C39.6164 30.5347 31.3627 30.527 22.0494 27.7015C12.7362 24.8761 5.89517 20.277 6.7551 17.4439C7.02382 16.5532 8.02962 15.9083 9.57287 15.6165C4.3596 15.4092 0.766356 16.3459 0.0983814 18.4343C-1.06098 22.2733 8.16015 28.4156 20.6904 32.2545C33.2207 36.0934 44.3152 36.0934 45.4746 32.2545C46.1119 30.1584 43.6166 27.3637 39.1557 24.6304Z" fill="#1875ED"/>
</svg>
