<svg width="56" height="56" viewBox="0 0 56 56" fill="none" xmlns="http://www.w3.org/2000/svg">
<rect x="4" y="4" width="48" height="48" rx="24" fill="#BCE0FD"/>
<path d="M32 24.0001V20.5007C32 19.669 32 19.2531 31.8248 18.9975C31.6717 18.7743 31.4346 18.6226 31.1678 18.5772C30.8623 18.5252 30.4847 18.6994 29.7295 19.048L20.859 23.1421C20.1855 23.4529 19.8488 23.6083 19.6021 23.8494C19.3841 24.0625 19.2176 24.3226 19.1155 24.6099C19 24.9349 19 25.3058 19 26.0475V31.0001M32.5 30.5001H32.51M19 27.2001L19 33.8001C19 34.9202 19 35.4802 19.218 35.9081C19.4097 36.2844 19.7157 36.5903 20.092 36.7821C20.5198 37.0001 21.0799 37.0001 22.2 37.0001H33.8C34.9201 37.0001 35.4802 37.0001 35.908 36.7821C36.2843 36.5903 36.5903 36.2844 36.782 35.9081C37 35.4802 37 34.9202 37 33.8001V27.2001C37 26.08 37 25.5199 36.782 25.0921C36.5903 24.7158 36.2843 24.4098 35.908 24.2181C35.4802 24.0001 34.9201 24.0001 33.8 24.0001L22.2 24.0001C21.0799 24.0001 20.5198 24.0001 20.092 24.2181C19.7157 24.4098 19.4097 24.7158 19.218 25.0921C19 25.5199 19 26.08 19 27.2001ZM33 30.5001C33 30.7762 32.7761 31.0001 32.5 31.0001C32.2239 31.0001 32 30.7762 32 30.5001C32 30.2239 32.2239 30.0001 32.5 30.0001C32.7761 30.0001 33 30.2239 33 30.5001Z" stroke="#1875ED" stroke-width="2" stroke-linecap="round" stroke-linejoin="round"/>
<rect x="4" y="4" width="48" height="48" rx="24" stroke="#F1F9FF" stroke-width="8"/>
</svg>
