<svg width="56" height="56" viewBox="0 0 56 56" fill="none" xmlns="http://www.w3.org/2000/svg">
<rect x="4" y="4" width="48" height="48" rx="24" fill="#BCE0FD"/>
<path d="M23.8687 31.4599L23 38L27.5884 35.247C27.7381 35.1572 27.8129 35.1123 27.8928 35.0947C27.9634 35.0792 28.0366 35.0792 28.1072 35.0947C28.1871 35.1123 28.2619 35.1572 28.4116 35.247L33 38L32.1319 31.4571M32.4259 20.2489C32.5803 20.6224 32.8768 20.9193 33.25 21.0743L34.5589 21.6165C34.9325 21.7712 35.2292 22.068 35.384 22.4415C35.5387 22.8151 35.5387 23.2348 35.384 23.6084L34.8422 24.9164C34.6874 25.2901 34.6872 25.7102 34.8427 26.0837L35.3835 27.3913C35.4602 27.5764 35.4997 27.7747 35.4997 27.975C35.4998 28.1752 35.4603 28.3736 35.3837 28.5586C35.3071 28.7436 35.1947 28.9118 35.0531 29.0534C34.9114 29.195 34.7433 29.3073 34.5582 29.3839L33.2503 29.9256C32.8768 30.0801 32.5799 30.3765 32.4249 30.7498L31.8827 32.0588C31.728 32.4323 31.4312 32.7291 31.0577 32.8838C30.6841 33.0386 30.2644 33.0386 29.8909 32.8838L28.583 32.342C28.2094 32.1877 27.7899 32.188 27.4166 32.3429L26.1077 32.8843C25.7343 33.0387 25.315 33.0386 24.9418 32.884C24.5685 32.7293 24.2719 32.4329 24.1171 32.0598L23.5748 30.7504C23.4204 30.3769 23.1239 30.08 22.7506 29.925L21.4417 29.3828C21.0684 29.2282 20.7717 28.9316 20.6169 28.5582C20.4621 28.1849 20.4619 27.7654 20.6163 27.3919L21.1581 26.0839C21.3124 25.7104 21.3121 25.2908 21.1572 24.9175L20.6162 23.6076C20.5395 23.4226 20.5 23.2243 20.5 23.024C20.5 22.8237 20.5394 22.6254 20.616 22.4403C20.6927 22.2553 20.805 22.0872 20.9467 21.9456C21.0883 21.804 21.2565 21.6917 21.4415 21.6151L22.7495 21.0733C23.1227 20.919 23.4194 20.6229 23.5745 20.25L24.1166 18.9411C24.2714 18.5676 24.5681 18.2708 24.9417 18.116C25.3152 17.9613 25.7349 17.9613 26.1084 18.116L27.4164 18.6578C27.7899 18.8122 28.2095 18.8119 28.5828 18.657L29.8922 18.1169C30.2657 17.9622 30.6853 17.9623 31.0588 18.117C31.4322 18.2717 31.729 18.5684 31.8837 18.9418L32.426 20.2511L32.4259 20.2489Z" stroke="#1875ED" stroke-width="2" stroke-linecap="round" stroke-linejoin="round"/>
<rect x="4" y="4" width="48" height="48" rx="24" stroke="#F1F9FF" stroke-width="8"/>
</svg>
