<svg width="56" height="56" viewBox="0 0 56 56" fill="none" xmlns="http://www.w3.org/2000/svg">
<rect x="4" y="4" width="48" height="48" rx="24" fill="#BCE0FD"/>
<path d="M24.8762 29.0953L20.7012 23.8765C20.4413 23.5517 20.3114 23.3892 20.219 23.2083C20.137 23.0479 20.0771 22.877 20.0408 22.7005C20 22.5016 20 22.2935 20 21.8775V21.2C20 20.0799 20 19.5198 20.218 19.092C20.4097 18.7157 20.7157 18.4097 21.092 18.218C21.5198 18 22.0799 18 23.2 18H32.8C33.9201 18 34.4802 18 34.908 18.218C35.2843 18.4097 35.5903 18.7157 35.782 19.092C36 19.5198 36 20.0799 36 21.2V21.8775C36 22.2935 36 22.5016 35.9592 22.7005C35.9229 22.877 35.863 23.0479 35.781 23.2083C35.6886 23.3892 35.5587 23.5517 35.2988 23.8765L31.1238 29.0953M21.0001 19L28.0001 28L35 19M31.5355 29.4645C33.4882 31.4171 33.4882 34.5829 31.5355 36.5355C29.5829 38.4882 26.4171 38.4882 24.4645 36.5355C22.5118 34.5829 22.5118 31.4171 24.4645 29.4645C26.4171 27.5118 29.5829 27.5118 31.5355 29.4645Z" stroke="#1875ED" stroke-width="2" stroke-linecap="round" stroke-linejoin="round"/>
<rect x="4" y="4" width="48" height="48" rx="24" stroke="#F1F9FF" stroke-width="8"/>
</svg>
