<svg width="100" height="100" viewBox="0 0 100 100" fill="none" xmlns="http://www.w3.org/2000/svg">
<rect width="100" height="100" fill="white"/>
<g clip-path="url(#clip0_322_36901)">
<path d="M65.0848 63.1199L50.0148 71.8249L34.9448 63.1199L50.0148 54.4199L65.0848 63.1199Z" fill="white"/>
<path d="M50.0148 71.8249V89.2249L34.9448 80.5249V63.1199L50.0148 71.8249Z" fill="#9CC7FF"/>
<path d="M65.0851 63.1199V80.5249L50.0151 89.2249V71.8249L65.0851 63.1199Z" fill="#8AFFD8"/>
<path d="M65.0848 19.4249L50.0148 28.1249L34.9448 19.4249L50.0148 10.7249L65.0848 19.4249Z" fill="white"/>
<path d="M50.0148 28.1248V45.5298L34.9448 36.8298V19.4248L50.0148 28.1248Z" fill="#9CC7FF"/>
<path d="M65.0851 19.4248V36.8298L50.0151 45.5298V28.1248L65.0851 19.4248Z" fill="#8AFFD8"/>
<path d="M92.56 41.3699L77.485 50.0699L62.415 41.3699L77.485 32.6699L92.56 41.3699Z" fill="white"/>
<path d="M77.485 50.0699V67.4749L62.415 58.7699V41.3699L77.485 50.0699Z" fill="#9CC7FF"/>
<path d="M92.5599 41.3699V58.7699L77.4849 67.4749V50.0699L92.5599 41.3699Z" fill="#8AFFD8"/>
<path d="M37.6151 41.3699L22.5451 50.0699L7.4751 41.3699L22.5451 32.6699L37.6151 41.3699Z" fill="white"/>
<path d="M22.5451 50.0699V67.4749L7.4751 58.7699V41.3699L22.5451 50.0699Z" fill="#9CC7FF"/>
<path d="M37.6149 41.3699V58.7699L22.5449 67.4749V50.0699L37.6149 41.3699Z" fill="#8AFFD8"/>
<path d="M34.9448 63.1199L47.0198 56.1499" stroke="#1875ED" stroke-width="0.75" stroke-miterlimit="10" stroke-linecap="round" stroke-linejoin="round"/>
<path d="M50.0151 54.4199L65.0851 63.1199L50.0151 71.8249" stroke="#1875ED" stroke-width="0.75" stroke-miterlimit="10" stroke-linecap="round" stroke-linejoin="round"/>
<path d="M42.48 67.4749L50.015 71.8249" stroke="#1875ED" stroke-width="0.75" stroke-miterlimit="10" stroke-linecap="round" stroke-linejoin="round"/>
<path d="M34.9448 80.5249V63.1199L40.0498 66.0699" stroke="#1875ED" stroke-width="0.75" stroke-miterlimit="10" stroke-linecap="round" stroke-linejoin="round"/>
<path d="M50.0147 89.2248L37.9897 82.2798" stroke="#1875ED" stroke-width="0.75" stroke-miterlimit="10" stroke-linecap="round" stroke-linejoin="round"/>
<path d="M65.0851 75.335V80.525L50.0151 89.225V76.175" stroke="#1875ED" stroke-width="0.75" stroke-miterlimit="10" stroke-linecap="round" stroke-linejoin="round"/>
<path d="M50.0151 71.8249L65.0851 63.1199V71.8249" stroke="#1875ED" stroke-width="0.75" stroke-miterlimit="10" stroke-linecap="round" stroke-linejoin="round"/>
<path d="M34.9448 19.4249L50.0148 10.7249L53.1798 12.5499" stroke="#1875ED" stroke-width="0.75" stroke-miterlimit="10" stroke-linecap="round" stroke-linejoin="round"/>
<path d="M56.2301 14.3098L65.0851 19.4248L50.0151 28.1248" stroke="#1875ED" stroke-width="0.75" stroke-miterlimit="10" stroke-linecap="round" stroke-linejoin="round"/>
<path d="M50.0147 45.5299L37.2847 38.1799" stroke="#1875ED" stroke-width="0.75" stroke-miterlimit="10" stroke-linecap="round" stroke-linejoin="round"/>
<path d="M45.875 25.7349L50.015 28.1249" stroke="#1875ED" stroke-width="0.75" stroke-miterlimit="10" stroke-linecap="round" stroke-linejoin="round"/>
<path d="M34.9448 26.9548V19.4248L41.7298 23.3398" stroke="#1875ED" stroke-width="0.75" stroke-miterlimit="10" stroke-linecap="round" stroke-linejoin="round"/>
<path d="M34.9448 33.8699V29.6099" stroke="#1875ED" stroke-width="0.75" stroke-miterlimit="10" stroke-linecap="round" stroke-linejoin="round"/>
<path d="M50.0151 38.7248V28.1248L65.0851 19.4248V33.7898" stroke="#1875ED" stroke-width="0.75" stroke-miterlimit="10" stroke-linecap="round" stroke-linejoin="round"/>
<path d="M62.7451 38.1799L50.0151 45.5299V42.4799" stroke="#1875ED" stroke-width="0.75" stroke-miterlimit="10" stroke-linecap="round" stroke-linejoin="round"/>
<path d="M69.9497 37.0199L77.4847 32.6699L81.2547 34.8449" stroke="#1875ED" stroke-width="0.75" stroke-miterlimit="10" stroke-linecap="round" stroke-linejoin="round"/>
<path d="M62.415 41.3699L67.53 38.4199" stroke="#1875ED" stroke-width="0.75" stroke-miterlimit="10" stroke-linecap="round" stroke-linejoin="round"/>
<path d="M85.0249 37.02L92.5599 41.37L77.4849 50.07" stroke="#1875ED" stroke-width="0.75" stroke-miterlimit="10" stroke-linecap="round" stroke-linejoin="round"/>
<path d="M77.4851 67.4748L64.8501 60.1748" stroke="#1875ED" stroke-width="0.75" stroke-miterlimit="10" stroke-linecap="round" stroke-linejoin="round"/>
<path d="M67.7051 44.4248L77.4851 50.0698" stroke="#1875ED" stroke-width="0.75" stroke-miterlimit="10" stroke-linecap="round" stroke-linejoin="round"/>
<path d="M62.415 55.6399V41.3699L65.395 43.0899" stroke="#1875ED" stroke-width="0.75" stroke-miterlimit="10" stroke-linecap="round" stroke-linejoin="round"/>
<path d="M92.5597 46.4448V58.7698L86.8247 62.0798" stroke="#1875ED" stroke-width="0.75" stroke-miterlimit="10" stroke-linecap="round" stroke-linejoin="round"/>
<path d="M77.4849 54.2649V50.0699L92.5599 41.3699V44.3999" stroke="#1875ED" stroke-width="0.75" stroke-miterlimit="10" stroke-linecap="round" stroke-linejoin="round"/>
<path d="M83.1999 64.1748L77.4849 67.4748V57.2998" stroke="#1875ED" stroke-width="0.75" stroke-miterlimit="10" stroke-linecap="round" stroke-linejoin="round"/>
<path d="M22.5451 50.0699L7.4751 41.3699L12.0551 38.7249" stroke="#1875ED" stroke-width="0.75" stroke-miterlimit="10" stroke-linecap="round" stroke-linejoin="round"/>
<path d="M25.6401 34.4548L37.6151 41.3698" stroke="#1875ED" stroke-width="0.75" stroke-miterlimit="10" stroke-linecap="round" stroke-linejoin="round"/>
<path d="M15.0098 37.0199L22.5448 32.6699L24.2398 33.6499" stroke="#1875ED" stroke-width="0.75" stroke-miterlimit="10" stroke-linecap="round" stroke-linejoin="round"/>
<path d="M22.5451 67.4749L7.4751 58.7699V41.3699L22.5451 50.0699" stroke="#1875ED" stroke-width="0.75" stroke-miterlimit="10" stroke-linecap="round" stroke-linejoin="round"/>
<path d="M31.4297 44.9399L37.6147 41.3699V55.6399" stroke="#1875ED" stroke-width="0.75" stroke-miterlimit="10" stroke-linecap="round" stroke-linejoin="round"/>
<path d="M22.5449 64.1748V50.0698L28.8249 46.4448" stroke="#1875ED" stroke-width="0.75" stroke-miterlimit="10" stroke-linecap="round" stroke-linejoin="round"/>
<path d="M35.1849 60.1748L22.5449 67.4748" stroke="#1875ED" stroke-width="0.75" stroke-miterlimit="10" stroke-linecap="round" stroke-linejoin="round"/>
<path d="M31.6301 55.3149L30.0801 54.4199" stroke="#1875ED" stroke-width="0.75" stroke-miterlimit="10" stroke-linecap="round" stroke-linejoin="round"/>
<path d="M40.0497 60.1749L37.6147 58.7699L33.0747 56.1499" stroke="#1875ED" stroke-width="0.75" stroke-miterlimit="10" stroke-linecap="round" stroke-linejoin="round"/>
<path d="M59.9849 60.1749L62.4149 58.7699L69.9499 54.4199" stroke="#1875ED" stroke-width="0.75" stroke-miterlimit="10" stroke-linecap="round" stroke-linejoin="round"/>
<path d="M42.2497 32.5898L34.9447 36.8048L32.3247 38.3148" stroke="#1875ED" stroke-width="0.75" stroke-miterlimit="10" stroke-linecap="round" stroke-linejoin="round"/>
<path d="M63.0601 35.6348L65.0851 36.8048L67.7051 38.3148" stroke="#1875ED" stroke-width="0.75" stroke-miterlimit="10" stroke-linecap="round" stroke-linejoin="round"/>
<path d="M57.7847 32.5898L61.4147 34.6848" stroke="#1875ED" stroke-width="0.75" stroke-miterlimit="10" stroke-linecap="round" stroke-linejoin="round"/>
</g>
<defs>
<clipPath id="clip0_322_36901">
<rect width="85.735" height="79.15" fill="white" transform="translate(7.1499 10.3999)"/>
</clipPath>
</defs>
</svg>
