<svg width="100" height="100" viewBox="0 0 100 100" fill="none" xmlns="http://www.w3.org/2000/svg">
<rect width="100" height="100" fill="white"/>
<g clip-path="url(#clip0_322_36727)">
<path d="M88.065 23.6849V76.2599C88.065 72.0299 70.645 68.5949 49.16 68.5949C27.675 68.5949 10.25 72.0299 10.25 76.2649V23.6849C10.25 27.9199 27.67 31.3499 49.155 31.3499C70.64 31.3499 88.065 27.9199 88.065 23.6849Z" fill="#8AFFD8"/>
<path d="M49.155 31.3549C70.6416 31.3549 88.06 27.9232 88.06 23.6899C88.06 19.4566 70.6416 16.0249 49.155 16.0249C27.6684 16.0249 10.25 19.4566 10.25 23.6899C10.25 27.9232 27.6684 31.3549 49.155 31.3549Z" fill="white"/>
<path d="M49.155 83.925C70.6416 83.925 88.06 80.4932 88.06 76.26C88.06 72.0267 70.6416 68.595 49.155 68.595C27.6684 68.595 10.25 72.0267 10.25 76.26C10.25 80.4932 27.6684 83.925 49.155 83.925Z" fill="white"/>
<path d="M38.7349 16.3799C42.4449 16.1499 46.3899 16.0249 50.4849 16.0249C71.9749 16.0249 89.3899 19.4549 89.3899 23.6849" stroke="#1875ED" stroke-width="0.75" stroke-miterlimit="10" stroke-linecap="round" stroke-linejoin="round"/>
<path d="M11.5801 23.685C11.5801 20.875 19.2601 18.42 30.7151 17.085" stroke="#1875ED" stroke-width="0.75" stroke-miterlimit="10" stroke-linecap="round" stroke-linejoin="round"/>
<path d="M19.6552 80.94C14.5902 79.645 11.5752 78.025 11.5752 76.265" stroke="#1875ED" stroke-width="0.75" stroke-miterlimit="10" stroke-linecap="round" stroke-linejoin="round"/>
<path d="M35.2851 83.3199C32.7951 83.1099 30.4351 82.8549 28.2451 82.5499" stroke="#1875ED" stroke-width="0.75" stroke-miterlimit="10" stroke-linecap="round" stroke-linejoin="round"/>
<path d="M89.3948 76.265C89.3948 80.495 71.9748 83.925 50.4898 83.925C46.7048 83.925 43.0498 83.82 39.5898 83.62" stroke="#1875ED" stroke-width="0.75" stroke-miterlimit="10" stroke-linecap="round" stroke-linejoin="round"/>
<path d="M26.1099 29.6599C27.5649 29.8899 29.0999 30.0999 30.7149 30.2899" stroke="#1875ED" stroke-width="0.75" stroke-miterlimit="10" stroke-linecap="round" stroke-linejoin="round"/>
<path d="M11.5801 33.6399V23.6849C11.5801 25.6799 15.4401 27.4899 21.7701 28.8549" stroke="#1875ED" stroke-width="0.75" stroke-miterlimit="10" stroke-linecap="round" stroke-linejoin="round"/>
<path d="M11.5801 54.815V36.735" stroke="#1875ED" stroke-width="0.75" stroke-miterlimit="10" stroke-linecap="round" stroke-linejoin="round"/>
<path d="M16.9501 72.3749C13.5401 73.5149 11.5801 74.8449 11.5801 76.2599V62.7899" stroke="#1875ED" stroke-width="0.75" stroke-miterlimit="10" stroke-linecap="round" stroke-linejoin="round"/>
<path d="M30.9152 69.64C27.1252 70.075 23.7452 70.635 20.9102 71.285" stroke="#1875ED" stroke-width="0.75" stroke-miterlimit="10" stroke-linecap="round" stroke-linejoin="round"/>
<path d="M73.0998 70.0249C72.1798 69.8949 71.2348 69.7749 70.2598 69.6599" stroke="#1875ED" stroke-width="0.75" stroke-miterlimit="10" stroke-linecap="round" stroke-linejoin="round"/>
<path d="M89.3952 45.245V76.265C89.3952 73.965 84.2552 71.905 76.1152 70.5" stroke="#1875ED" stroke-width="0.75" stroke-miterlimit="10" stroke-linecap="round" stroke-linejoin="round"/>
<path d="M89.395 38.655V41.625" stroke="#1875ED" stroke-width="0.75" stroke-miterlimit="10" stroke-linecap="round" stroke-linejoin="round"/>
<path d="M84.9053 27.2649C87.7703 26.1949 89.3953 24.9799 89.3953 23.6899V31.9499" stroke="#1875ED" stroke-width="0.75" stroke-miterlimit="10" stroke-linecap="round" stroke-linejoin="round"/>
<path d="M70.2598 30.29C74.9598 29.745 79.0248 29.005 82.1798 28.135" stroke="#1875ED" stroke-width="0.75" stroke-miterlimit="10" stroke-linecap="round" stroke-linejoin="round"/>
</g>
<path d="M47.5214 45.718C48.2366 48.451 48.0582 51.2059 47.1697 53.6763C45.7151 57.7162 42.365 60.991 37.9004 62.1594C33.4357 63.3277 28.9061 62.115 25.6639 59.3042C23.6792 57.5857 22.1742 55.2713 21.459 52.5384C19.5754 45.3408 23.8824 37.9806 31.08 36.097C38.2776 34.2135 45.6378 38.5204 47.5214 45.718Z" fill="#9CC7FF"/>
<path d="M36.8269 58.0575C41.7584 56.767 44.71 51.723 43.4195 46.7915C42.1289 41.8599 37.0849 38.9084 32.1534 40.1989C27.2219 41.4894 24.2703 46.5334 25.5609 51.465C26.8514 56.3965 31.8954 59.3481 36.8269 58.0575Z" fill="white"/>
<path d="M39.4609 35.8729C40.2165 36.0938 40.9473 36.3781 41.6471 36.7221" stroke="#1875ED" stroke-width="0.75" stroke-miterlimit="10" stroke-linecap="round" stroke-linejoin="round"/>
<path d="M22.6685 52.222C20.7849 45.0244 25.0919 37.6642 32.2895 35.7806C33.8809 35.3642 35.4841 35.2495 37.0332 35.4023" stroke="#1875ED" stroke-width="0.75" stroke-miterlimit="10" stroke-linecap="round" stroke-linejoin="round"/>
<path d="M47.4252 55.4442C45.693 58.5024 42.7758 60.8835 39.1093 61.843C34.6446 63.0114 30.115 61.7986 26.8728 58.9879C26.0169 58.2454 25.2521 57.3964 24.6001 56.4454" stroke="#1875ED" stroke-width="0.75" stroke-miterlimit="10" stroke-linecap="round" stroke-linejoin="round"/>
<path d="M45.348 39.4077C46.9242 41.0264 48.118 43.0604 48.7307 45.4016C49.4459 48.1345 49.2675 50.8894 48.379 53.3598" stroke="#1875ED" stroke-width="0.75" stroke-miterlimit="10" stroke-linecap="round" stroke-linejoin="round"/>
<path d="M30.0428 41.5161C31.0012 40.7743 32.1192 40.2078 33.3624 39.8824C38.2914 38.5925 43.3373 41.5411 44.6284 46.475C44.7879 47.0845 44.8807 47.6959 44.9153 48.3019" stroke="#1875ED" stroke-width="0.75" stroke-miterlimit="10" stroke-linecap="round" stroke-linejoin="round"/>
<path d="M27.4211 44.7296C27.7082 44.148 28.0515 43.6033 28.451 43.0957" stroke="#1875ED" stroke-width="0.75" stroke-miterlimit="10" stroke-linecap="round" stroke-linejoin="round"/>
<path d="M44.5776 51.3364C43.7123 54.3692 41.3095 56.8793 38.0347 57.7363C33.1057 59.0262 28.0598 56.0776 26.7687 51.1437C26.6345 50.631 26.5464 50.1166 26.5008 49.6065" stroke="#1875ED" stroke-width="0.75" stroke-miterlimit="10" stroke-linecap="round" stroke-linejoin="round"/>
<line x1="31.6548" y1="48.6169" x2="35.0118" y2="47.7384" stroke="#9CC7FF" stroke-width="1.75" stroke-miterlimit="10" stroke-linecap="round" stroke-linejoin="round"/>
<path d="M36.1692 43.0347L36.1257 43.0461C34.5228 43.4655 33.5635 45.105 33.9829 46.7078L35.138 51.1217C35.5575 52.7246 34.5981 54.364 32.9952 54.7834L32.8464 54.8224" stroke="#9CC7FF" stroke-width="1.75" stroke-miterlimit="10" stroke-linecap="round" stroke-linejoin="round"/>
<line x1="32.3154" y1="51.1419" x2="35.6724" y2="50.2634" stroke="#9CC7FF" stroke-width="1.75" stroke-miterlimit="10" stroke-linecap="round" stroke-linejoin="round"/>
<path d="M37.1365 42.7815L37.093 42.7929C35.4901 43.2123 34.5307 44.8518 34.9502 46.4547L36.1053 50.8685C36.5247 52.4714 35.5654 54.1108 33.9625 54.5303L33.8137 54.5692" stroke="#1875ED" stroke-width="0.75" stroke-miterlimit="10" stroke-linecap="round" stroke-linejoin="round"/>
<line x1="32.9798" y1="47.7535" x2="37.3042" y2="46.6218" stroke="#1875ED" stroke-width="0.75" stroke-miterlimit="10" stroke-linecap="round" stroke-linejoin="round"/>
<line x1="33.6404" y1="50.2784" x2="37.9648" y2="49.1467" stroke="#1875ED" stroke-width="0.75" stroke-miterlimit="10" stroke-linecap="round" stroke-linejoin="round"/>
<path d="M77.5118 54.9694C76.4475 56.5055 74.9874 57.6023 73.3643 58.2201C70.7093 59.2294 67.6223 58.9576 65.1129 57.219C62.6035 55.4803 61.2618 52.6836 61.2769 49.8452C61.2851 48.1085 61.799 46.3561 62.8633 44.8201C65.6663 40.7746 71.2168 39.7676 75.2622 42.5705C79.3077 45.3734 80.3147 50.9239 77.5118 54.9694Z" fill="#9CC7FF"/>
<path d="M66.7102 54.9134C69.4819 56.8338 73.2858 56.1437 75.2062 53.3719C77.1267 50.6001 76.4365 46.7963 73.6647 44.8758C70.893 42.9554 67.0892 43.6455 65.1687 46.4173C63.2483 49.1891 63.9384 52.9929 66.7102 54.9134Z" fill="white"/>
<path d="M78.9839 46.6824C79.1983 47.1569 79.3703 47.6462 79.499 48.1458" stroke="#1875ED" stroke-width="0.75" stroke-miterlimit="10" stroke-linecap="round" stroke-linejoin="round"/>
<path d="M63.543 45.291C66.3459 41.2456 71.8964 40.2385 75.9419 43.0415C76.8364 43.6612 77.5843 44.4168 78.1748 45.2605" stroke="#1875ED" stroke-width="0.75" stroke-miterlimit="10" stroke-linecap="round" stroke-linejoin="round"/>
<path d="M72.5868 59.1098C70.3052 59.557 67.8533 59.1177 65.7925 57.6898C63.2832 55.9512 61.9414 53.1545 61.9565 50.316C61.9608 49.5665 62.0577 48.8168 62.2544 48.08" stroke="#1875ED" stroke-width="0.75" stroke-miterlimit="10" stroke-linecap="round" stroke-linejoin="round"/>
<path d="M79.7442 51.1605C79.6102 52.649 79.103 54.1244 78.1913 55.4403C77.127 56.9764 75.6669 58.0732 74.0438 58.6909" stroke="#1875ED" stroke-width="0.75" stroke-miterlimit="10" stroke-linecap="round" stroke-linejoin="round"/>
<path d="M72.0947 44.3836C72.88 44.5454 73.6459 44.8628 74.3446 45.3469C77.115 47.2664 77.8074 51.0698 75.8861 53.8429C75.6487 54.1855 75.3817 54.4954 75.0923 54.7737" stroke="#1875ED" stroke-width="0.75" stroke-miterlimit="10" stroke-linecap="round" stroke-linejoin="round"/>
<path d="M69.3518 44.4509C69.7675 44.3446 70.1888 44.2824 70.6158 44.2644" stroke="#1875ED" stroke-width="0.75" stroke-miterlimit="10" stroke-linecap="round" stroke-linejoin="round"/>
<path d="M73.4229 55.9108C71.5274 56.7824 69.2322 56.6569 67.3917 55.3816C64.6213 53.4621 63.9288 49.6587 65.8502 46.8856C66.0499 46.5974 66.2703 46.3316 66.5067 46.089" stroke="#1875ED" stroke-width="0.75" stroke-miterlimit="10" stroke-linecap="round" stroke-linejoin="round"/>
<line x1="69.635" y1="48.1762" x2="71.035" y2="49.1461" stroke="#9CC7FF" stroke-width="1.75" stroke-miterlimit="10" stroke-linecap="round" stroke-linejoin="round"/>
<path d="M73.9702 48.1137V48.1137C73.0558 47.4801 71.8009 47.7078 71.1673 48.6222L69.5233 50.9949C68.8671 51.942 67.5674 52.1778 66.6203 51.5216V51.5216" stroke="#9CC7FF" stroke-width="1.75" stroke-miterlimit="10" stroke-linecap="round" stroke-linejoin="round"/>
<line x1="68.6516" y1="49.5954" x2="70.0516" y2="50.5653" stroke="#9CC7FF" stroke-width="1.75" stroke-miterlimit="10" stroke-linecap="round" stroke-linejoin="round"/>
<path d="M74.5136 48.4904V48.4904C73.5992 47.8568 72.3443 48.0845 71.7107 48.9989L70.0668 51.3716C69.4106 52.3187 68.1109 52.5545 67.1638 51.8983V51.8983" stroke="#1875ED" stroke-width="0.75" stroke-miterlimit="10" stroke-linecap="round" stroke-linejoin="round"/>
<line x1="70.4036" y1="48.5123" x2="72.6255" y2="50.0517" stroke="#1875ED" stroke-width="0.75" stroke-miterlimit="10" stroke-linecap="round" stroke-linejoin="round"/>
<line x1="69.4202" y1="49.9314" x2="71.6421" y2="51.4709" stroke="#1875ED" stroke-width="0.75" stroke-miterlimit="10" stroke-linecap="round" stroke-linejoin="round"/>
<path d="M57.0004 70.516C56.1827 70.4753 55.3469 70.4392 54.4976 70.4121" stroke="#1875ED" stroke-width="0.75" stroke-miterlimit="10" stroke-linecap="round" stroke-linejoin="round"/>
<path d="M73.3274 73.3027C71.0188 72.0923 65.8506 71.1257 59.2773 70.656" stroke="#1875ED" stroke-width="0.75" stroke-miterlimit="10" stroke-linecap="round" stroke-linejoin="round"/>
<path d="M63.8042 78.3748C70.3413 77.5889 74.6467 76.2521 74.6467 74.73" stroke="#1875ED" stroke-width="0.75" stroke-miterlimit="10" stroke-linecap="round" stroke-linejoin="round"/>
<path d="M56.3994 78.9664C57.3843 78.9213 58.3465 78.8625 59.2772 78.7993" stroke="#1875ED" stroke-width="0.75" stroke-miterlimit="10" stroke-linecap="round" stroke-linejoin="round"/>
<path d="M26 74.73C26 77.1463 36.8876 79.1065 50.3232 79.1065C51.525 79.1065 52.7041 79.0929 53.8561 79.0613" stroke="#1875ED" stroke-width="0.75" stroke-miterlimit="10" stroke-linecap="round" stroke-linejoin="round"/>
<path d="M46.0315 70.4167C37.1723 70.7013 29.9711 71.8485 27.2153 73.357" stroke="#1875ED" stroke-width="0.75" stroke-miterlimit="10" stroke-linecap="round" stroke-linejoin="round"/>
<path d="M43.6461 18.516C44.4638 18.4753 45.2996 18.4392 46.1489 18.4121" stroke="#1875ED" stroke-width="0.75" stroke-miterlimit="10" stroke-linecap="round" stroke-linejoin="round"/>
<path d="M27.3191 21.3027C29.6277 20.0923 34.7959 19.1257 41.3691 18.656" stroke="#1875ED" stroke-width="0.75" stroke-miterlimit="10" stroke-linecap="round" stroke-linejoin="round"/>
<path d="M36.8423 26.3748C30.3052 25.5889 25.9998 24.2521 25.9998 22.73" stroke="#1875ED" stroke-width="0.75" stroke-miterlimit="10" stroke-linecap="round" stroke-linejoin="round"/>
<path d="M44.2471 26.9664C43.2622 26.9213 42.2999 26.8625 41.3693 26.7993" stroke="#1875ED" stroke-width="0.75" stroke-miterlimit="10" stroke-linecap="round" stroke-linejoin="round"/>
<path d="M74.6465 22.73C74.6465 25.1463 63.7588 27.1065 50.3232 27.1065C49.1215 27.1065 47.9424 27.0929 46.7904 27.0613" stroke="#1875ED" stroke-width="0.75" stroke-miterlimit="10" stroke-linecap="round" stroke-linejoin="round"/>
<path d="M54.615 18.4167C63.4742 18.7013 70.6754 19.8485 73.4312 21.357" stroke="#1875ED" stroke-width="0.75" stroke-miterlimit="10" stroke-linecap="round" stroke-linejoin="round"/>
<defs>
<clipPath id="clip0_322_36727">
<rect width="79.47" height="68.55" fill="white" transform="translate(10.25 15.7)"/>
</clipPath>
</defs>
</svg>
