<svg width="100" height="100" viewBox="0 0 100 100" fill="none" xmlns="http://www.w3.org/2000/svg">
<rect width="100" height="100" fill="white"/>
<g clip-path="url(#clip0_322_36553)">
<path d="M52.4349 69.065C52.4349 70.8 51.6049 72.53 49.9449 73.575C48.4549 74.51 47.5249 76.125 47.4599 77.88C47.4549 78.075 47.4349 78.27 47.4049 78.46C47.0149 81.16 44.6699 83.015 42.1249 83.015C41.2999 83.015 40.4499 82.82 39.6449 82.395C38.8649 81.985 38.0099 81.78 37.1599 81.78C36.3049 81.78 35.4499 81.985 34.6749 82.395C33.8649 82.82 33.0199 83.015 32.1899 83.015C29.4699 83.015 26.9749 80.89 26.8599 77.88C26.8399 77.3 26.7199 76.73 26.5199 76.2C26.4199 75.93 26.2949 75.67 26.1499 75.42C26.1449 75.41 26.1349 75.4 26.1299 75.39C25.7049 74.66 25.1049 74.035 24.3699 73.57C22.7099 72.525 21.8799 70.79 21.8799 69.06C21.8799 67.33 22.7099 65.595 24.3699 64.55C25.1149 64.08 25.7199 63.445 26.1449 62.705C26.5699 61.965 26.8199 61.125 26.8549 60.245C26.9699 57.235 29.4649 55.11 32.1849 55.11C33.0099 55.11 33.8599 55.305 34.6649 55.73C35.4449 56.14 36.2999 56.345 37.1499 56.345C38.0049 56.345 38.8599 56.14 39.6349 55.73C40.4449 55.305 41.2899 55.11 42.1149 55.11C44.8399 55.11 47.3299 57.235 47.4449 60.245C47.4799 61.125 47.7299 61.965 48.1549 62.705C48.5849 63.445 49.1899 64.08 49.9299 64.55C51.6049 65.6 52.4349 67.335 52.4349 69.065Z" fill="#9CC7FF"/>
<path d="M83.68 22.43V52.32C81.87 51.445 79.84 50.9549 77.7 50.9549C77.7 39.4699 68.39 30.16 56.905 30.16H48.04C44.885 30.16 41.89 30.865 39.21 32.1199V10.325H71.57V22.43H83.68Z" fill="#9CC7FF"/>
<path d="M91.45 64.71C91.45 72.305 85.295 78.465 77.695 78.465H68.835C76.43 78.465 82.59 72.305 82.59 64.71C82.59 57.115 76.435 50.955 68.835 50.955C68.835 40.99 61.825 32.66 52.47 30.63C51.045 30.32 49.56 30.155 48.04 30.155H56.9C68.385 30.155 77.695 39.465 77.695 50.95C79.84 50.95 81.87 51.44 83.675 52.315C88.275 54.545 91.45 59.26 91.45 64.71Z" fill="#8AFFD8"/>
<path d="M82.59 64.71C82.59 72.305 76.435 78.465 68.835 78.465H47.405C47.43 78.275 47.45 78.085 47.46 77.885C47.53 76.125 48.46 74.515 49.945 73.58C51.605 72.535 52.435 70.8 52.435 69.07C52.435 67.34 51.605 65.605 49.945 64.56C49.2 64.09 48.595 63.455 48.17 62.715C47.745 61.975 47.495 61.135 47.46 60.255C47.345 57.245 44.85 55.12 42.13 55.12C41.305 55.12 40.455 55.315 39.65 55.74C38.87 56.15 38.015 56.355 37.165 56.355C36.31 56.355 35.455 56.15 34.68 55.74C33.87 55.315 33.025 55.12 32.2 55.12C29.475 55.12 26.985 57.245 26.87 60.255C26.835 61.135 26.585 61.975 26.16 62.715C25.735 63.455 25.13 64.09 24.385 64.56C22.725 65.605 21.895 67.34 21.895 69.07C21.895 70.805 22.725 72.535 24.385 73.58C25.12 74.045 25.72 74.67 26.145 75.4C25.445 74.27 24.205 73.48 22.715 73.48C22.605 73.48 22.49 73.485 22.375 73.495C21.135 73.595 19.915 73.12 19.07 72.205C18.245 71.31 17.17 70.895 16.11 70.895C14.345 70.895 12.62 72.04 12.15 74.01C12.005 74.615 11.725 75.17 11.34 75.64C10.955 76.11 10.465 76.495 9.9 76.755C9.865 76.77 9.825 76.79 9.79 76.81C7.505 75.18 6 72.525 6 69.525C6 65.445 8.73 62.005 12.465 60.935C12.225 59.885 12.1 58.79 12.1 57.67C12.1 49.585 18.655 43.03 26.74 43.03C27.425 43.03 28.095 43.075 28.755 43.165C30.725 38.295 34.48 34.345 39.215 32.125C41.895 30.865 44.885 30.165 48.045 30.165C49.565 30.165 51.045 30.33 52.475 30.64C61.83 32.67 68.84 41 68.84 50.965C76.43 50.955 82.59 57.115 82.59 64.71Z" fill="white"/>
<path d="M26.0099 83.06C26.2299 83.585 26.3299 84.115 26.3299 84.625C26.3299 87.045 24.0999 89.115 21.4749 88.59C21.2099 88.535 20.9449 88.51 20.6799 88.51C19.7199 88.51 18.7849 88.85 18.0399 89.485C17.2549 90.16 16.3299 90.465 15.4199 90.465C13.4849 90.465 11.6349 89.07 11.3749 86.88C11.3049 86.26 11.0899 85.675 10.7649 85.165C10.4349 84.655 9.9949 84.215 9.4649 83.89C8.1599 83.095 7.5249 81.765 7.5249 80.435C7.5249 78.98 8.2899 77.535 9.7749 76.8C9.8099 76.78 9.8499 76.765 9.8849 76.745C10.4499 76.485 10.9399 76.1 11.3249 75.63C11.7099 75.16 11.9899 74.605 12.1349 74C12.6049 72.03 14.3299 70.885 16.0949 70.885C17.1549 70.885 18.2299 71.3 19.0549 72.195C19.8999 73.11 21.1199 73.585 22.3599 73.485C22.4749 73.475 22.5899 73.47 22.6999 73.47C24.1899 73.47 25.4299 74.26 26.1299 75.39C26.1349 75.4 26.1399 75.41 26.1499 75.42C26.2999 75.665 26.4249 75.925 26.5199 76.2C26.8799 77.23 26.8349 78.415 26.2199 79.51C25.8749 80.125 25.6999 80.81 25.6999 81.495C25.6999 82.03 25.7999 82.56 26.0099 83.06Z" fill="#8FC0FF"/>
<path d="M37.1547 74.75C40.2945 74.75 42.8397 72.2047 42.8397 69.065C42.8397 65.9253 40.2945 63.38 37.1547 63.38C34.015 63.38 31.4697 65.9253 31.4697 69.065C31.4697 72.2047 34.015 74.75 37.1547 74.75Z" fill="white"/>
<path d="M18.443 84.019C20.2303 83.5522 21.3008 81.7248 20.834 79.9374C20.3671 78.1501 18.5398 77.0796 16.7524 77.5464C14.965 78.0133 13.8946 79.8407 14.3614 81.628C14.8282 83.4154 16.6556 84.4858 18.443 84.019Z" fill="white"/>
<path d="M72.8896 10.325L84.9946 22.43H72.8896V10.325Z" fill="#9CC7FF" stroke="#1875ED" stroke-width="0.75" stroke-miterlimit="10" stroke-linecap="round" stroke-linejoin="round"/>
<path d="M24.7246 43.41C25.7946 43.16 26.9096 43.03 28.0546 43.03C28.7396 43.03 29.4096 43.075 30.0696 43.165C30.8446 41.245 31.8996 39.47 33.1796 37.885" stroke="#1875ED" stroke-width="0.75" stroke-miterlimit="10" stroke-linecap="round" stroke-linejoin="round"/>
<path d="M7.31982 69.5249C7.31982 65.445 10.0498 62.005 13.7848 60.935C13.5448 59.885 13.4198 58.79 13.4198 57.67C13.4198 52.04 16.5998 47.15 21.2648 44.7" stroke="#1875ED" stroke-width="0.75" stroke-miterlimit="10" stroke-linecap="round" stroke-linejoin="round"/>
<path d="M8.8398 74.49C8.2448 73.605 7.7998 72.61 7.5498 71.545" stroke="#1875ED" stroke-width="0.75" stroke-miterlimit="10" stroke-linecap="round" stroke-linejoin="round"/>
<path d="M83.9097 64.71C83.9097 72.305 77.7547 78.465 70.1547 78.465H61.0747" stroke="#1875ED" stroke-width="0.75" stroke-miterlimit="10" stroke-linecap="round" stroke-linejoin="round"/>
<path d="M35.6396 35.33C37.1046 34.045 38.7496 32.96 40.5296 32.125C43.2096 30.865 46.1996 30.165 49.3596 30.165C50.8796 30.165 52.3596 30.33 53.7896 30.64" stroke="#1875ED" stroke-width="0.75" stroke-miterlimit="10" stroke-linecap="round" stroke-linejoin="round"/>
<path d="M78.4697 60.87C78.9447 62.06 79.2047 63.36 79.2047 64.72C79.2047 66.68 78.6647 68.515 77.7197 70.08" stroke="#1875ED" stroke-width="0.75" stroke-miterlimit="10" stroke-linecap="round" stroke-linejoin="round"/>
<path d="M63.4551 43.72C64.1051 44.935 64.6051 46.24 64.9401 47.615" stroke="#1875ED" stroke-width="0.75" stroke-miterlimit="10" stroke-linecap="round" stroke-linejoin="round"/>
<path d="M44.6748 35.295C45.9448 34.985 47.2748 34.825 48.6398 34.825C49.8648 34.825 51.0648 34.955 52.2148 35.205C55.9648 36.02 59.2498 38.085 61.6048 40.95" stroke="#1875ED" stroke-width="0.75" stroke-miterlimit="10" stroke-linecap="round" stroke-linejoin="round"/>
<path d="M48.7247 78.465H48.7197" stroke="#1875ED" stroke-width="0.75" stroke-miterlimit="10" stroke-linecap="round" stroke-linejoin="round"/>
<path d="M66.6998 39.475C66.1248 38.61 65.4898 37.79 64.7998 37.025" stroke="#1875ED" stroke-width="0.75" stroke-miterlimit="10" stroke-linecap="round" stroke-linejoin="round"/>
<path d="M80.8698 56.0849C78.3498 52.9599 74.4848 50.9599 70.1548 50.9599C70.1548 47.4749 69.2998 44.1899 67.7798 41.3049" stroke="#1875ED" stroke-width="0.75" stroke-miterlimit="10" stroke-linecap="round" stroke-linejoin="round"/>
<path d="M84.8648 77.16C83.0898 77.995 81.1048 78.465 79.0148 78.465H70.1548C77.7498 78.465 83.9098 72.305 83.9098 64.71C83.9098 63.275 83.6898 61.895 83.2848 60.595" stroke="#1875ED" stroke-width="0.75" stroke-miterlimit="10" stroke-linecap="round" stroke-linejoin="round"/>
<path d="M90.2348 72.665C89.6098 73.545 88.8798 74.35 88.0698 75.065" stroke="#1875ED" stroke-width="0.75" stroke-miterlimit="10" stroke-linecap="round" stroke-linejoin="round"/>
<path d="M79.0146 50.955C81.1596 50.955 83.1896 51.445 84.9946 52.32C89.5946 54.545 92.7646 59.255 92.7646 64.71C92.7646 66.835 92.2846 68.845 91.4246 70.64" stroke="#1875ED" stroke-width="0.75" stroke-miterlimit="10" stroke-linecap="round" stroke-linejoin="round"/>
<path d="M58.6699 32.355C57.1399 31.59 55.5049 31.005 53.7899 30.635C52.3649 30.325 50.8799 30.16 49.3599 30.16H58.2199" stroke="#1875ED" stroke-width="0.75" stroke-miterlimit="10" stroke-linecap="round" stroke-linejoin="round"/>
<path d="M51.2647 64.5549C52.9247 65.5999 53.7547 67.3349 53.7547 69.0649C53.7547 70.7999 52.9247 72.5299 51.2647 73.5749C49.7747 74.5099 48.8447 76.1249 48.7797 77.8799C48.7747 78.0749 48.7547 78.2699 48.7247 78.4599C48.5547 79.6499 47.9997 80.6799 47.2197 81.4549" stroke="#1875ED" stroke-width="0.75" stroke-miterlimit="10" stroke-linecap="round" stroke-linejoin="round"/>
<path d="M46 55.77C47.56 56.62 48.7 58.235 48.775 60.245" stroke="#1875ED" stroke-width="0.75" stroke-miterlimit="10" stroke-linecap="round" stroke-linejoin="round"/>
<path d="M28.1748 60.25C28.2898 57.24 30.7848 55.115 33.5048 55.115C34.3298 55.115 35.1798 55.31 35.9848 55.735C36.7648 56.145 37.6198 56.35 38.4698 56.35C39.3248 56.35 40.1798 56.145 40.9548 55.735C41.7648 55.31 42.6098 55.115 43.4348 55.115C43.6748 55.115 43.9098 55.13 44.1448 55.165" stroke="#1875ED" stroke-width="0.75" stroke-miterlimit="10" stroke-linecap="round" stroke-linejoin="round"/>
<path d="M44.1551 82.97C43.9201 83 43.6851 83.02 43.4501 83.02C42.6251 83.02 41.7751 82.825 40.9701 82.4C40.1901 81.99 39.3351 81.785 38.4851 81.785C37.6301 81.785 36.7751 81.99 36.0001 82.4C35.1901 82.825 34.3451 83.02 33.5151 83.02C30.7951 83.02 28.3001 80.895 28.1851 77.885C28.1651 77.305 28.0451 76.735 27.8451 76.205C27.7451 75.935 27.6201 75.675 27.4751 75.425C27.4701 75.415 27.4601 75.405 27.4551 75.395C27.0301 74.665 26.4301 74.04 25.6951 73.575C24.0351 72.53 23.2051 70.795 23.2051 69.065C23.2051 67.335 24.0351 65.6 25.6951 64.555C26.2001 64.235 26.6451 63.84 27.0101 63.385" stroke="#1875ED" stroke-width="0.75" stroke-miterlimit="10" stroke-linecap="round" stroke-linejoin="round"/>
<path d="M41.8199 73.665C40.8799 74.35 39.7249 74.755 38.4749 74.755C37.8849 74.755 37.3149 74.665 36.7749 74.495" stroke="#1875ED" stroke-width="0.75" stroke-miterlimit="10" stroke-linecap="round" stroke-linejoin="round"/>
<path d="M40.0996 63.62C42.4496 64.32 44.1596 66.495 44.1596 69.07C44.1596 70.305 43.7646 71.445 43.0996 72.375" stroke="#1875ED" stroke-width="0.75" stroke-miterlimit="10" stroke-linecap="round" stroke-linejoin="round"/>
<path d="M33.1 70.92C32.9 70.34 32.79 69.715 32.79 69.07C32.79 66.37 34.675 64.11 37.2 63.53" stroke="#1875ED" stroke-width="0.75" stroke-miterlimit="10" stroke-linecap="round" stroke-linejoin="round"/>
<path d="M13.4497 74.005C13.9197 72.035 15.6447 70.89 17.4097 70.89C18.4697 70.89 19.5447 71.305 20.3697 72.2C21.2147 73.115 22.4347 73.59 23.6747 73.49C23.7897 73.48 23.9047 73.475 24.0147 73.475C25.5047 73.475 26.7447 74.265 27.4447 75.395C27.4497 75.405 27.4547 75.415 27.4647 75.425C27.6147 75.67 27.7397 75.93 27.8347 76.205C28.1947 77.235 28.1497 78.42 27.5347 79.515C27.1897 80.13 27.0147 80.815 27.0147 81.5C27.0147 82.03 27.1197 82.555 27.3247 83.055C27.4747 83.415 27.5697 83.775 27.6147 84.13" stroke="#1875ED" stroke-width="0.75" stroke-miterlimit="10" stroke-linecap="round" stroke-linejoin="round"/>
<path d="M9.92973 83.205C9.19973 82.435 8.84473 81.435 8.84473 80.44C8.84473 78.985 9.60973 77.54 11.0947 76.805C11.1297 76.785 11.1697 76.77 11.2047 76.75C11.6347 76.55 12.0197 76.285 12.3497 75.96" stroke="#1875ED" stroke-width="0.75" stroke-miterlimit="10" stroke-linecap="round" stroke-linejoin="round"/>
<path d="M20.8651 88.67C20.3151 88.83 19.8001 89.105 19.3551 89.485C18.5701 90.16 17.6451 90.465 16.7351 90.465C14.8001 90.465 12.9501 89.07 12.6901 86.88C12.6201 86.26 12.4051 85.675 12.0801 85.165" stroke="#1875ED" stroke-width="0.75" stroke-miterlimit="10" stroke-linecap="round" stroke-linejoin="round"/>
<path d="M25.0899 88.385C24.3999 88.66 23.6149 88.75 22.7949 88.585" stroke="#1875ED" stroke-width="0.75" stroke-miterlimit="10" stroke-linecap="round" stroke-linejoin="round"/>
<path d="M19.7649 84.025C17.9749 84.49 16.1499 83.42 15.6849 81.635C15.2949 80.15 15.9699 78.635 17.2399 77.9" stroke="#1875ED" stroke-width="0.75" stroke-miterlimit="10" stroke-linecap="round" stroke-linejoin="round"/>
<path d="M20.2646 77.725C21.1696 78.125 21.8846 78.915 22.1546 79.94C22.2896 80.455 22.2946 80.97 22.1946 81.455" stroke="#1875ED" stroke-width="0.75" stroke-miterlimit="10" stroke-linecap="round" stroke-linejoin="round"/>
<path d="M71.1748 34.685C67.6198 31.85 63.1198 30.16 58.2198 30.16H49.3598C46.2048 30.16 43.2098 30.865 40.5298 32.12V18.775" stroke="#1875ED" stroke-width="0.75" stroke-miterlimit="10" stroke-linecap="round" stroke-linejoin="round"/>
<path d="M84.9948 52.3199C83.1848 51.4449 81.1548 50.9549 79.0148 50.9549C79.0148 47.0649 77.9448 43.4249 76.0898 40.3149" stroke="#1875ED" stroke-width="0.75" stroke-miterlimit="10" stroke-linecap="round" stroke-linejoin="round"/>
<path d="M84.9946 45.17V48.55" stroke="#1875ED" stroke-width="0.75" stroke-miterlimit="10" stroke-linecap="round" stroke-linejoin="round"/>
<path d="M72.8896 10.325V22.43H84.9946V42.32" stroke="#1875ED" stroke-width="0.75" stroke-miterlimit="10" stroke-linecap="round" stroke-linejoin="round"/>
<path d="M40.5298 14.345V10.325H69.7348" stroke="#1875ED" stroke-width="0.75" stroke-miterlimit="10" stroke-linecap="round" stroke-linejoin="round"/>
<path d="M62.0049 18.33H66.5649" stroke="#1875ED" stroke-width="0.75" stroke-miterlimit="10" stroke-linecap="round" stroke-linejoin="round"/>
<path d="M47.8198 18.33H59.5348" stroke="#1875ED" stroke-width="0.75" stroke-miterlimit="10" stroke-linecap="round" stroke-linejoin="round"/>
<path d="M52.5049 22.4299H66.5649" stroke="#1875ED" stroke-width="0.75" stroke-miterlimit="10" stroke-linecap="round" stroke-linejoin="round"/>
<path d="M47.8198 22.4299H50.1298" stroke="#1875ED" stroke-width="0.75" stroke-miterlimit="10" stroke-linecap="round" stroke-linejoin="round"/>
<path d="M57.0046 78.465H48.7246" stroke="#1875ED" stroke-width="0.75" stroke-miterlimit="10" stroke-linecap="round" stroke-linejoin="round"/>
</g>
<defs>
<clipPath id="clip0_322_36553">
<rect width="87.095" height="80.79" fill="white" transform="translate(6 10)"/>
</clipPath>
</defs>
</svg>
