<svg width="100" height="100" viewBox="0 0 100 100" fill="none" xmlns="http://www.w3.org/2000/svg">
<g clip-path="url(#clip0_322_36814)">
<rect width="100" height="100" fill="white"/>
<g clip-path="url(#clip1_322_36814)">
<path d="M74.0752 33.6448H16.0952V38.5348H74.0752V33.6448Z" fill="white"/>
<path d="M74.0752 57.0098H16.0952V61.8998H74.0752V57.0098Z" fill="white"/>
<path d="M76.235 33.6448H13.935C11.945 33.6448 10.335 32.0348 10.335 30.0448V18.7748C10.335 16.7848 11.945 15.1748 13.935 15.1748H76.235C78.225 15.1748 79.835 16.7848 79.835 18.7748V30.0448C79.835 32.0348 78.22 33.6448 76.235 33.6448Z" fill="#9CC7FF"/>
<path d="M76.235 57.0098H13.935C11.945 57.0098 10.335 55.3998 10.335 53.4098V42.1398C10.335 40.1498 11.945 38.5398 13.935 38.5398H76.235C78.225 38.5398 79.835 40.1498 79.835 42.1398V53.4098C79.835 55.3998 78.22 57.0098 76.235 57.0098Z" fill="#9CC7FF"/>
<path d="M76.235 80.3749H13.935C11.945 80.3749 10.335 78.7649 10.335 76.7749V65.4999C10.335 63.5099 11.945 61.8999 13.935 61.8999H76.235C78.225 61.8999 79.835 63.5099 79.835 65.4999V76.7699C79.835 78.7599 78.22 80.3749 76.235 80.3749Z" fill="#9CC7FF"/>
<path d="M63.375 28.0847H44.13C43.16 28.0847 42.375 27.2997 42.375 26.3297V22.4947C42.375 21.5247 43.16 20.7397 44.13 20.7397H63.375C64.345 20.7397 65.13 21.5247 65.13 22.4947V26.3297C65.13 27.2997 64.345 28.0847 63.375 28.0847Z" fill="#8AFFD8"/>
<path d="M63.375 51.4449H44.13C43.16 51.4449 42.375 50.6599 42.375 49.6899V45.8549C42.375 44.8849 43.16 44.0999 44.13 44.0999H63.375C64.345 44.0999 65.13 44.8849 65.13 45.8549V49.6899C65.13 50.6599 64.345 51.4449 63.375 51.4449Z" fill="#8AFFD8"/>
<path d="M63.375 74.8098H44.13C43.16 74.8098 42.375 74.0248 42.375 73.0548V69.2198C42.375 68.2498 43.16 67.4648 44.13 67.4648H63.375C64.345 67.4648 65.13 68.2498 65.13 69.2198V73.0548C65.13 74.0248 64.345 74.8098 63.375 74.8098Z" fill="#8AFFD8"/>
<path d="M72.3099 26.1748C73.2847 26.1748 74.0749 25.3846 74.0749 24.4098C74.0749 23.435 73.2847 22.6448 72.3099 22.6448C71.3351 22.6448 70.5449 23.435 70.5449 24.4098C70.5449 25.3846 71.3351 26.1748 72.3099 26.1748Z" fill="white"/>
<path d="M72.3099 49.5398C73.2847 49.5398 74.0749 48.7495 74.0749 47.7748C74.0749 46.8 73.2847 46.0098 72.3099 46.0098C71.3351 46.0098 70.5449 46.8 70.5449 47.7748C70.5449 48.7495 71.3351 49.5398 72.3099 49.5398Z" fill="white"/>
<path d="M72.3099 72.8999C73.2847 72.8999 74.0749 72.1096 74.0749 71.1349C74.0749 70.1601 73.2847 69.3699 72.3099 69.3699C71.3351 69.3699 70.5449 70.1601 70.5449 71.1349C70.5449 72.1096 71.3351 72.8999 72.3099 72.8999Z" fill="white"/>
<path d="M94.5549 78.9549C94.5549 82.2099 91.9149 84.8449 88.6649 84.8449H68.9999C66.6549 84.8449 64.7549 82.9449 64.7549 80.5999C64.7549 78.2549 66.6549 76.3549 68.9999 76.3549H69.0249C69.0099 76.1399 68.9999 75.9199 68.9999 75.6999C68.9999 70.6499 73.0949 66.5549 78.1449 66.5549C82.3649 66.5549 85.9199 69.4149 86.9699 73.3049C87.5049 73.1449 88.0749 73.0599 88.6649 73.0599C91.9149 73.0599 94.5549 75.6999 94.5549 78.9549Z" fill="white"/>
<path d="M11.585 30.0448V18.7748C11.585 16.7848 13.195 15.1748 15.185 15.1748H23.005" stroke="#1875ED" stroke-width="1.17188" stroke-miterlimit="10" stroke-linecap="round" stroke-linejoin="round"/>
<path d="M54.4851 33.6448H15.1851C14.1801 33.6448 13.2701 33.2348 12.6201 32.5698" stroke="#1875ED" stroke-width="1.17188" stroke-miterlimit="10" stroke-linecap="round" stroke-linejoin="round"/>
<path d="M50.9751 15.1748H77.4851C79.4751 15.1748 81.0851 16.7848 81.0851 18.7748V30.0448C81.0851 32.0348 79.4751 33.6448 77.4851 33.6448H59.7851" stroke="#1875ED" stroke-width="1.17188" stroke-miterlimit="10" stroke-linecap="round" stroke-linejoin="round"/>
<path d="M30.2749 15.1748H44.8249" stroke="#1875ED" stroke-width="1.17188" stroke-miterlimit="10" stroke-linecap="round" stroke-linejoin="round"/>
<path d="M43.625 57.0098H15.185C13.195 57.0098 11.585 55.3998 11.585 53.4098V42.1398C11.585 40.1498 13.195 38.5398 15.185 38.5398H26.985" stroke="#1875ED" stroke-width="1.17188" stroke-miterlimit="10" stroke-linecap="round" stroke-linejoin="round"/>
<path d="M50.9752 57.0098H48.8052" stroke="#1875ED" stroke-width="1.17188" stroke-miterlimit="10" stroke-linecap="round" stroke-linejoin="round"/>
<path d="M81.0852 42.5298V53.4098C81.0852 55.3998 79.4752 57.0098 77.4852 57.0098H53.2852" stroke="#1875ED" stroke-width="1.17188" stroke-miterlimit="10" stroke-linecap="round" stroke-linejoin="round"/>
<path d="M40.7852 38.5398H77.4852C78.6702 38.5398 79.7202 39.1098 80.3752 39.9898" stroke="#1875ED" stroke-width="1.17188" stroke-miterlimit="10" stroke-linecap="round" stroke-linejoin="round"/>
<path d="M34.3252 38.5398H37.5502" stroke="#1875ED" stroke-width="1.17188" stroke-miterlimit="10" stroke-linecap="round" stroke-linejoin="round"/>
<path d="M15.185 80.3749C13.195 80.3749 11.585 78.7649 11.585 76.7749V71.1399" stroke="#1875ED" stroke-width="1.17188" stroke-miterlimit="10" stroke-linecap="round" stroke-linejoin="round"/>
<path d="M64.1749 80.375H22.1699" stroke="#1875ED" stroke-width="1.17188" stroke-miterlimit="10" stroke-linecap="round" stroke-linejoin="round"/>
<path d="M75.3252 61.8999H77.4852C79.4752 61.8999 81.0852 63.5149 81.0852 65.4999V67.0399" stroke="#1875ED" stroke-width="1.17188" stroke-miterlimit="10" stroke-linecap="round" stroke-linejoin="round"/>
<path d="M28.085 61.8999H71.185" stroke="#1875ED" stroke-width="1.17188" stroke-miterlimit="10" stroke-linecap="round" stroke-linejoin="round"/>
<path d="M11.585 65.4999C11.585 63.5099 13.195 61.8999 15.185 61.8999H23.885" stroke="#1875ED" stroke-width="1.17188" stroke-miterlimit="10" stroke-linecap="round" stroke-linejoin="round"/>
<path d="M17.3452 33.6448V38.5398" stroke="#1875ED" stroke-width="1.17188" stroke-miterlimit="10" stroke-linecap="round" stroke-linejoin="round"/>
<path d="M75.3252 33.6448V36.4548" stroke="#1875ED" stroke-width="1.17188" stroke-miterlimit="10" stroke-linecap="round" stroke-linejoin="round"/>
<path d="M17.3452 61.9001V58.5801" stroke="#1875ED" stroke-width="1.17188" stroke-miterlimit="10" stroke-linecap="round" stroke-linejoin="round"/>
<path d="M75.3252 61.8998V57.0098" stroke="#1875ED" stroke-width="1.17188" stroke-miterlimit="10" stroke-linecap="round" stroke-linejoin="round"/>
<path d="M17.3452 22.6699V29.8899" stroke="#1875ED" stroke-width="1.17188" stroke-miterlimit="10" stroke-linecap="round" stroke-linejoin="round"/>
<path d="M23.0054 22.6699V29.8899" stroke="#1875ED" stroke-width="1.17188" stroke-miterlimit="10" stroke-linecap="round" stroke-linejoin="round"/>
<path d="M28.665 28.085V29.89" stroke="#1875ED" stroke-width="1.17188" stroke-miterlimit="10" stroke-linecap="round" stroke-linejoin="round"/>
<path d="M28.665 22.6699V26.2799" stroke="#1875ED" stroke-width="1.17188" stroke-miterlimit="10" stroke-linecap="round" stroke-linejoin="round"/>
<path d="M20.1753 26.2798V29.8898" stroke="#1875ED" stroke-width="1.17188" stroke-miterlimit="10" stroke-linecap="round" stroke-linejoin="round"/>
<path d="M25.8354 26.2798V29.8898" stroke="#1875ED" stroke-width="1.17188" stroke-miterlimit="10" stroke-linecap="round" stroke-linejoin="round"/>
<path d="M31.4951 26.2798V29.8898" stroke="#1875ED" stroke-width="1.17188" stroke-miterlimit="10" stroke-linecap="round" stroke-linejoin="round"/>
<path d="M34.3252 22.6699V29.8899" stroke="#1875ED" stroke-width="1.17188" stroke-miterlimit="10" stroke-linecap="round" stroke-linejoin="round"/>
<path d="M37.1553 26.2798V29.8898" stroke="#1875ED" stroke-width="1.17188" stroke-miterlimit="10" stroke-linecap="round" stroke-linejoin="round"/>
<path d="M52.1748 20.7397H64.6248C65.5948 20.7397 66.3798 21.5247 66.3798 22.4947V26.3297C66.3798 27.2997 65.5948 28.0847 64.6248 28.0847" stroke="#1875ED" stroke-width="1.17188" stroke-miterlimit="10" stroke-linecap="round" stroke-linejoin="round"/>
<path d="M60.725 28.0847H45.38C44.41 28.0847 43.625 27.2997 43.625 26.3297V22.4947C43.625 21.5247 44.41 20.7397 45.38 20.7397H48.725" stroke="#1875ED" stroke-width="1.17188" stroke-miterlimit="10" stroke-linecap="round" stroke-linejoin="round"/>
<path d="M73.5599 22.6448C74.5349 22.6448 75.3249 23.4348 75.3249 24.4098C75.3249 25.3848 74.5349 26.1748 73.5599 26.1748C72.5849 26.1748 71.7949 25.3848 71.7949 24.4098C71.7949 23.9898 71.9399 23.6048 72.1899 23.2998" stroke="#1875ED" stroke-width="1.17188" stroke-miterlimit="10" stroke-linecap="round" stroke-linejoin="round"/>
<path d="M17.3452 49.6448V53.2498" stroke="#1875ED" stroke-width="1.17188" stroke-miterlimit="10" stroke-linecap="round" stroke-linejoin="round"/>
<path d="M17.3452 46.0349V47.7749" stroke="#1875ED" stroke-width="1.17188" stroke-miterlimit="10" stroke-linecap="round" stroke-linejoin="round"/>
<path d="M23.0054 46.0349V53.2499" stroke="#1875ED" stroke-width="1.17188" stroke-miterlimit="10" stroke-linecap="round" stroke-linejoin="round"/>
<path d="M28.665 46.0349V53.2499" stroke="#1875ED" stroke-width="1.17188" stroke-miterlimit="10" stroke-linecap="round" stroke-linejoin="round"/>
<path d="M20.1753 49.6448V53.2498" stroke="#1875ED" stroke-width="1.17188" stroke-miterlimit="10" stroke-linecap="round" stroke-linejoin="round"/>
<path d="M25.8354 49.6448V53.2498" stroke="#1875ED" stroke-width="1.17188" stroke-miterlimit="10" stroke-linecap="round" stroke-linejoin="round"/>
<path d="M31.4951 49.6448V53.2498" stroke="#1875ED" stroke-width="1.17188" stroke-miterlimit="10" stroke-linecap="round" stroke-linejoin="round"/>
<path d="M34.3252 51.4451V53.2501" stroke="#1875ED" stroke-width="1.17188" stroke-miterlimit="10" stroke-linecap="round" stroke-linejoin="round"/>
<path d="M34.3252 46.0349V49.7699" stroke="#1875ED" stroke-width="1.17188" stroke-miterlimit="10" stroke-linecap="round" stroke-linejoin="round"/>
<path d="M37.1553 49.6448V53.2498" stroke="#1875ED" stroke-width="1.17188" stroke-miterlimit="10" stroke-linecap="round" stroke-linejoin="round"/>
<path d="M53.99 51.4447H45.38C44.41 51.4447 43.625 50.6597 43.625 49.6897V47.1797" stroke="#1875ED" stroke-width="1.17188" stroke-miterlimit="10" stroke-linecap="round" stroke-linejoin="round"/>
<path d="M44.1401 44.6149C44.4601 44.2949 44.8951 44.0999 45.3801 44.0999H64.6251C65.5951 44.0999 66.3801 44.8849 66.3801 45.8549V49.6899C66.3801 50.6599 65.5951 51.4449 64.6251 51.4449H57.8851" stroke="#1875ED" stroke-width="1.17188" stroke-miterlimit="10" stroke-linecap="round" stroke-linejoin="round"/>
<path d="M74.0049 49.4799C73.8649 49.5149 73.7149 49.5349 73.5599 49.5349C72.5849 49.5349 71.7949 48.7449 71.7949 47.7699C71.7949 46.7949 72.5849 46.0049 73.5599 46.0049C74.5349 46.0049 75.3249 46.7949 75.3249 47.7699" stroke="#1875ED" stroke-width="1.17188" stroke-miterlimit="10" stroke-linecap="round" stroke-linejoin="round"/>
<path d="M17.3452 69.3948V76.6148" stroke="#1875ED" stroke-width="1.17188" stroke-miterlimit="10" stroke-linecap="round" stroke-linejoin="round"/>
<path d="M23.0054 74.3096V76.6146" stroke="#1875ED" stroke-width="1.17188" stroke-miterlimit="10" stroke-linecap="round" stroke-linejoin="round"/>
<path d="M23.0054 69.3948V71.9998" stroke="#1875ED" stroke-width="1.17188" stroke-miterlimit="10" stroke-linecap="round" stroke-linejoin="round"/>
<path d="M28.665 69.3948V76.6148" stroke="#1875ED" stroke-width="1.17188" stroke-miterlimit="10" stroke-linecap="round" stroke-linejoin="round"/>
<path d="M20.1753 73.0046V76.6146" stroke="#1875ED" stroke-width="1.17188" stroke-miterlimit="10" stroke-linecap="round" stroke-linejoin="round"/>
<path d="M25.8354 73.0046V76.6146" stroke="#1875ED" stroke-width="1.17188" stroke-miterlimit="10" stroke-linecap="round" stroke-linejoin="round"/>
<path d="M31.4951 73.0046V76.6146" stroke="#1875ED" stroke-width="1.17188" stroke-miterlimit="10" stroke-linecap="round" stroke-linejoin="round"/>
<path d="M34.3252 71.9998V76.6148" stroke="#1875ED" stroke-width="1.17188" stroke-miterlimit="10" stroke-linecap="round" stroke-linejoin="round"/>
<path d="M34.3252 69.3948V70.4998" stroke="#1875ED" stroke-width="1.17188" stroke-miterlimit="10" stroke-linecap="round" stroke-linejoin="round"/>
<path d="M37.1553 73.0046V76.6146" stroke="#1875ED" stroke-width="1.17188" stroke-miterlimit="10" stroke-linecap="round" stroke-linejoin="round"/>
<path d="M47.585 74.8098H45.38C44.41 74.8098 43.625 74.0248 43.625 73.0548V69.2198C43.625 68.2498 44.41 67.4648 45.38 67.4648H51.485" stroke="#1875ED" stroke-width="1.17188" stroke-miterlimit="10" stroke-linecap="round" stroke-linejoin="round"/>
<path d="M64.6251 67.4648C65.5951 67.4648 66.3801 68.2498 66.3801 69.2198V73.0548C66.3801 74.0248 65.5951 74.8098 64.6251 74.8098H49.8901" stroke="#1875ED" stroke-width="1.17188" stroke-miterlimit="10" stroke-linecap="round" stroke-linejoin="round"/>
<path d="M57.585 67.4648H62.285" stroke="#1875ED" stroke-width="1.17188" stroke-miterlimit="10" stroke-linecap="round" stroke-linejoin="round"/>
<path d="M77.2352 84.845H74.0752" stroke="#1875ED" stroke-width="1.17188" stroke-miterlimit="10" stroke-linecap="round" stroke-linejoin="round"/>
<path d="M93.5501 82.2498C92.4901 83.8148 90.7001 84.8448 88.6651 84.8448H79.2651" stroke="#1875ED" stroke-width="1.17188" stroke-miterlimit="10" stroke-linecap="round" stroke-linejoin="round"/>
<path d="M75.0049 67.1101C75.9849 66.7551 77.0399 66.5601 78.1399 66.5601C82.3599 66.5601 85.9149 69.4201 86.9649 73.3101C87.4999 73.1501 88.0699 73.0651 88.6599 73.0651C91.9149 73.0651 94.5499 75.7051 94.5499 78.9551C94.5499 79.2601 94.5249 79.5601 94.4799 79.8501" stroke="#1875ED" stroke-width="1.17188" stroke-miterlimit="10" stroke-linecap="round" stroke-linejoin="round"/>
<path d="M71.5 69.4199C71.99 68.9049 72.535 68.4449 73.13 68.0549" stroke="#1875ED" stroke-width="1.17188" stroke-miterlimit="10" stroke-linecap="round" stroke-linejoin="round"/>
<path d="M68.9999 84.8449C66.6549 84.8449 64.7549 82.9449 64.7549 80.5999C64.7549 78.2549 66.6549 76.3549 68.9999 76.3549H69.0249C69.0099 76.1399 68.9999 75.9199 68.9999 75.6999C68.9999 74.7599 69.1399 73.8549 69.4049 73.0049" stroke="#1875ED" stroke-width="1.17188" stroke-miterlimit="10" stroke-linecap="round" stroke-linejoin="round"/>
</g>
</g>
<defs>
<clipPath id="clip0_322_36814">
<rect width="100" height="100" fill="white"/>
</clipPath>
<clipPath id="clip1_322_36814">
<rect width="112.58" height="70.32" fill="white" transform="translate(-17.7002 14.8499)"/>
</clipPath>
</defs>
</svg>
