<svg width="100" height="100" viewBox="0 0 100 100" fill="none" xmlns="http://www.w3.org/2000/svg">
<rect width="100" height="100" fill="white"/>
<g clip-path="url(#clip0_322_36640)">
<path d="M78.4001 75.065H19.9351L22.4001 72C24.1601 69.81 26.8151 68.535 29.6251 68.535H68.7151C71.5251 68.535 74.1801 69.81 75.9401 72L78.4001 75.065Z" fill="#8AFFD8"/>
<path d="M93.09 89.0401H5.25V85.6451C5.25 79.8001 9.985 75.0651 15.83 75.0651H82.51C88.355 75.0651 93.09 79.8001 93.09 85.6451V89.0401Z" fill="#8AFFD8"/>
<path d="M42.7398 83.6551H75.1598C76.0448 83.6551 76.7648 82.9351 76.7648 82.0501C76.7648 81.1651 76.0448 80.4451 75.1598 80.4451H42.7398C41.8548 80.4451 41.1348 81.1651 41.1348 82.0501C41.1348 82.9351 41.8548 83.6551 42.7398 83.6551Z" fill="white"/>
<path d="M35.23 83.3851C35.9673 83.3851 36.565 82.7874 36.565 82.0501C36.565 81.3128 35.9673 80.7151 35.23 80.7151C34.4927 80.7151 33.895 81.3128 33.895 82.0501C33.895 82.7874 34.4927 83.3851 35.23 83.3851Z" fill="#1875ED"/>
<path d="M29.73 83.3851C30.4673 83.3851 31.065 82.7874 31.065 82.0501C31.065 81.3128 30.4673 80.7151 29.73 80.7151C28.9927 80.7151 28.395 81.3128 28.395 82.0501C28.395 82.7874 28.9927 83.3851 29.73 83.3851Z" fill="#1875ED"/>
<path d="M24.23 83.3851C24.9673 83.3851 25.565 82.7874 25.565 82.0501C25.565 81.3128 24.9673 80.7151 24.23 80.7151C23.4927 80.7151 22.895 81.3128 22.895 82.0501C22.895 82.7874 23.4927 83.3851 24.23 83.3851Z" fill="#1875ED"/>
<path d="M64.5649 19.865L49.1699 28.75L33.7749 19.865L49.1699 10.975L64.5649 19.865Z" fill="white"/>
<path d="M64.5649 19.865V37.635L49.1699 46.525V28.75L64.5649 19.865Z" fill="#8AFFD8"/>
<path d="M49.1699 28.75V46.525L33.7749 37.635V19.865L49.1699 28.75Z" fill="#9CC7FF"/>
<path d="M7.19482 82.0501C8.66482 77.9751 12.5648 75.0601 17.1498 75.0601H27.3998" stroke="#1875ED" stroke-width="0.75" stroke-miterlimit="10" stroke-linecap="round" stroke-linejoin="round"/>
<path d="M57.6048 89.04H6.56982V85.64" stroke="#1875ED" stroke-width="0.75" stroke-miterlimit="10" stroke-linecap="round" stroke-linejoin="round"/>
<path d="M66.9751 89.04H61.5801" stroke="#1875ED" stroke-width="0.75" stroke-miterlimit="10" stroke-linecap="round" stroke-linejoin="round"/>
<path d="M89.2452 89.04H73.9502" stroke="#1875ED" stroke-width="0.75" stroke-miterlimit="10" stroke-linecap="round" stroke-linejoin="round"/>
<path d="M92.9902 80.3401C93.8952 81.9001 94.4152 83.7101 94.4152 85.6451V89.0401" stroke="#1875ED" stroke-width="0.75" stroke-miterlimit="10" stroke-linecap="round" stroke-linejoin="round"/>
<path d="M43.4351 75.0651H83.8351C85.8151 75.0651 87.6651 75.6101 89.2451 76.5501" stroke="#1875ED" stroke-width="0.75" stroke-miterlimit="10" stroke-linecap="round" stroke-linejoin="round"/>
<path d="M33.895 75.0651H39.87" stroke="#1875ED" stroke-width="0.75" stroke-miterlimit="10" stroke-linecap="round" stroke-linejoin="round"/>
<path d="M23.21 72.63L23.72 72C25.48 69.81 28.135 68.535 30.945 68.535H32.63" stroke="#1875ED" stroke-width="0.75" stroke-miterlimit="10" stroke-linecap="round" stroke-linejoin="round"/>
<path d="M77.2598 72L79.7248 75.065" stroke="#1875ED" stroke-width="0.75" stroke-miterlimit="10" stroke-linecap="round" stroke-linejoin="round"/>
<path d="M65.5601 68.535H70.0401C71.4101 68.535 72.7451 68.84 73.9551 69.4" stroke="#1875ED" stroke-width="0.75" stroke-miterlimit="10" stroke-linecap="round" stroke-linejoin="round"/>
<path d="M50.4902 68.535H62.1452" stroke="#1875ED" stroke-width="0.75" stroke-miterlimit="10" stroke-linecap="round" stroke-linejoin="round"/>
<path d="M35.2002 68.535H47.7202" stroke="#1875ED" stroke-width="0.75" stroke-miterlimit="10" stroke-linecap="round" stroke-linejoin="round"/>
<path d="M52.4802 80.4451H48.9102" stroke="#1875ED" stroke-width="0.75" stroke-miterlimit="10" stroke-linecap="round" stroke-linejoin="round"/>
<path d="M71.185 83.6551H76.48C77.365 83.6551 78.085 82.9351 78.085 82.0501C78.085 81.1651 77.365 80.4451 76.48 80.4451H54.855" stroke="#1875ED" stroke-width="0.75" stroke-miterlimit="10" stroke-linecap="round" stroke-linejoin="round"/>
<path d="M44.0601 80.4451C43.1751 80.4451 42.4551 81.1651 42.4551 82.0501C42.4551 82.9351 43.1751 83.6551 44.0601 83.6551H64.6051" stroke="#1875ED" stroke-width="0.75" stroke-miterlimit="10" stroke-linecap="round" stroke-linejoin="round"/>
<path d="M53.4751 12.7001L65.8851 19.8651" stroke="#1875ED" stroke-width="0.75" stroke-miterlimit="10" stroke-linecap="round" stroke-linejoin="round"/>
<path d="M46.5249 13.265L50.4899 10.975" stroke="#1875ED" stroke-width="0.75" stroke-miterlimit="10" stroke-linecap="round" stroke-linejoin="round"/>
<path d="M35.0952 19.8651L45.1252 14.0751" stroke="#1875ED" stroke-width="0.75" stroke-miterlimit="10" stroke-linecap="round" stroke-linejoin="round"/>
<path d="M62.145 22.02L63.25 21.385" stroke="#1875ED" stroke-width="0.75" stroke-miterlimit="10" stroke-linecap="round" stroke-linejoin="round"/>
<path d="M50.4902 28.75L59.7452 23.41" stroke="#1875ED" stroke-width="0.75" stroke-miterlimit="10" stroke-linecap="round" stroke-linejoin="round"/>
<path d="M60.1602 40.9451L50.4902 46.5251" stroke="#1875ED" stroke-width="0.75" stroke-miterlimit="10" stroke-linecap="round" stroke-linejoin="round"/>
<path d="M65.8852 31.3301V37.6351L62.2202 39.7551" stroke="#1875ED" stroke-width="0.75" stroke-miterlimit="10" stroke-linecap="round" stroke-linejoin="round"/>
<path d="M65.8848 19.865V28.265" stroke="#1875ED" stroke-width="0.75" stroke-miterlimit="10" stroke-linecap="round" stroke-linejoin="round"/>
<path d="M37.8802 39.24L35.0952 37.635V28.75" stroke="#1875ED" stroke-width="0.75" stroke-miterlimit="10" stroke-linecap="round" stroke-linejoin="round"/>
<path d="M43.4349 42.4501L41.4849 41.3251" stroke="#1875ED" stroke-width="0.75" stroke-miterlimit="10" stroke-linecap="round" stroke-linejoin="round"/>
<path d="M50.49 33.995V46.525L45.125 43.425" stroke="#1875ED" stroke-width="0.75" stroke-miterlimit="10" stroke-linecap="round" stroke-linejoin="round"/>
<path d="M43.9248 24.96L50.4898 28.75V30.79" stroke="#1875ED" stroke-width="0.75" stroke-miterlimit="10" stroke-linecap="round" stroke-linejoin="round"/>
<path d="M35.0952 24.775V19.865L41.2402 23.41" stroke="#1875ED" stroke-width="0.75" stroke-miterlimit="10" stroke-linecap="round" stroke-linejoin="round"/>
<path d="M50.4902 57.08V55.23" stroke="#1875ED" stroke-width="0.75" stroke-miterlimit="10" stroke-linecap="round" stroke-linejoin="round"/>
<path d="M50.4902 68.535V59.765" stroke="#1875ED" stroke-width="0.75" stroke-miterlimit="10" stroke-linecap="round" stroke-linejoin="round"/>
<path d="M18.5702 30.915L17.1802 27.21" stroke="#1875ED" stroke-width="0.75" stroke-miterlimit="10" stroke-linecap="round" stroke-linejoin="round"/>
<path d="M20.9348 37.245L20.0098 34.775" stroke="#1875ED" stroke-width="0.75" stroke-miterlimit="10" stroke-linecap="round" stroke-linejoin="round"/>
<path d="M24.9051 47.8701L21.5151 38.8051" stroke="#1875ED" stroke-width="0.75" stroke-miterlimit="10" stroke-linecap="round" stroke-linejoin="round"/>
<path d="M28.3499 57.08L27.3999 54.54" stroke="#1875ED" stroke-width="0.75" stroke-miterlimit="10" stroke-linecap="round" stroke-linejoin="round"/>
<path d="M32.6301 68.5351L28.9551 58.7001" stroke="#1875ED" stroke-width="0.75" stroke-miterlimit="10" stroke-linecap="round" stroke-linejoin="round"/>
<path d="M43.1048 57.08L41.7998 48.865" stroke="#1875ED" stroke-width="0.75" stroke-miterlimit="10" stroke-linecap="round" stroke-linejoin="round"/>
<path d="M44.0301 62.885L43.4351 59.135" stroke="#1875ED" stroke-width="0.75" stroke-miterlimit="10" stroke-linecap="round" stroke-linejoin="round"/>
<path d="M44.9251 68.535L44.4751 65.71" stroke="#1875ED" stroke-width="0.75" stroke-miterlimit="10" stroke-linecap="round" stroke-linejoin="round"/>
<path d="M32.265 44.3301L30.77 38.8051" stroke="#1875ED" stroke-width="0.75" stroke-miterlimit="10" stroke-linecap="round" stroke-linejoin="round"/>
<path d="M37.3001 62.885L33.1001 47.4" stroke="#1875ED" stroke-width="0.75" stroke-miterlimit="10" stroke-linecap="round" stroke-linejoin="round"/>
<path d="M38.8349 68.535L37.8799 65.005" stroke="#1875ED" stroke-width="0.75" stroke-miterlimit="10" stroke-linecap="round" stroke-linejoin="round"/>
<path d="M81.145 34.31L83.8 27.21" stroke="#1875ED" stroke-width="0.75" stroke-miterlimit="10" stroke-linecap="round" stroke-linejoin="round"/>
<path d="M79.1553 39.6301L79.9753 37.4401" stroke="#1875ED" stroke-width="0.75" stroke-miterlimit="10" stroke-linecap="round" stroke-linejoin="round"/>
<path d="M75.4102 49.655L78.2252 42.12" stroke="#1875ED" stroke-width="0.75" stroke-miterlimit="10" stroke-linecap="round" stroke-linejoin="round"/>
<path d="M69.9902 64.15L74.6202 51.76" stroke="#1875ED" stroke-width="0.75" stroke-miterlimit="10" stroke-linecap="round" stroke-linejoin="round"/>
<path d="M68.3501 68.535L69.4051 65.71" stroke="#1875ED" stroke-width="0.75" stroke-miterlimit="10" stroke-linecap="round" stroke-linejoin="round"/>
<path d="M58.4199 53.67L59.1799 48.865" stroke="#1875ED" stroke-width="0.75" stroke-miterlimit="10" stroke-linecap="round" stroke-linejoin="round"/>
<path d="M57.1299 61.7601L58.0749 55.8101" stroke="#1875ED" stroke-width="0.75" stroke-miterlimit="10" stroke-linecap="round" stroke-linejoin="round"/>
<path d="M56.0552 68.535L56.5052 65.71" stroke="#1875ED" stroke-width="0.75" stroke-miterlimit="10" stroke-linecap="round" stroke-linejoin="round"/>
<path d="M69.7651 40.4551L70.2151 38.8051" stroke="#1875ED" stroke-width="0.75" stroke-miterlimit="10" stroke-linecap="round" stroke-linejoin="round"/>
<path d="M66.1802 53.6701L68.9602 43.425" stroke="#1875ED" stroke-width="0.75" stroke-miterlimit="10" stroke-linecap="round" stroke-linejoin="round"/>
<path d="M62.145 68.5351L65.06 57.8051" stroke="#1875ED" stroke-width="0.75" stroke-miterlimit="10" stroke-linecap="round" stroke-linejoin="round"/>
</g>
<defs>
<clipPath id="clip0_322_36640">
<rect width="89.485" height="78.715" fill="white" transform="translate(5.25 10.65)"/>
</clipPath>
</defs>
</svg>
