<svg width="100" height="100" viewBox="0 0 100 100" fill="none" xmlns="http://www.w3.org/2000/svg">
<rect width="100" height="100" fill="white"/>
<g clip-path="url(#clip0_322_36988)">
<path d="M77.855 85.4401V95.07H34.105V85.4401C34.105 83.1551 35.96 81.3 38.245 81.3H73.715C76 81.3 77.855 83.1501 77.855 85.4401Z" fill="#8AFFD8"/>
<path d="M74.675 53.2202V81.3002H37.285L23.68 65.5702C21.44 62.9552 21.745 59.0202 24.36 56.7852C25.535 55.7802 26.975 55.2852 28.41 55.2852C30.165 55.2852 31.915 56.0252 33.145 57.4652L37.285 62.3402V29.3152C37.285 27.5952 37.98 26.0352 39.11 24.9102C40.24 23.7802 41.795 23.0852 43.515 23.0852C46.955 23.0852 49.745 25.8752 49.745 29.3152V49.7452C49.745 46.3052 52.535 43.5152 55.975 43.5152C57.695 43.5152 59.255 44.2102 60.38 45.3402C61.505 46.4702 62.205 48.0252 62.205 49.7452V53.2252C62.205 51.5052 62.9 49.9452 64.03 48.8202C65.16 47.6952 66.715 46.9952 68.435 46.9952C71.885 46.9902 74.675 49.7802 74.675 53.2202Z" fill="#9CC7FF"/>
<path d="M27.9003 66.7702L26.9553 69.3552L23.6803 65.5652C21.7653 63.3302 21.7103 60.1252 23.3703 57.8452L27.0503 62.1102C28.1603 63.4002 28.4853 65.1802 27.9003 66.7702Z" fill="white"/>
<path d="M70.4399 90.5601C71.7516 90.5601 72.8149 89.4967 72.8149 88.1851C72.8149 86.8734 71.7516 85.8101 70.4399 85.8101C69.1283 85.8101 68.0649 86.8734 68.0649 88.1851C68.0649 89.4967 69.1283 90.5601 70.4399 90.5601Z" fill="white"/>
<path d="M43.5149 34.115C46.1217 34.115 48.2349 32.0018 48.2349 29.395C48.2349 26.7883 46.1217 24.675 43.5149 24.675C40.9081 24.675 38.7949 26.7883 38.7949 29.395C38.7949 32.0018 40.9081 34.115 43.5149 34.115Z" fill="white"/>
<path d="M38.5352 39.5452C37.6402 39.0252 36.8102 38.3952 36.0752 37.6802" stroke="#1875ED" stroke-width="0.75" stroke-miterlimit="10" stroke-linecap="round" stroke-linejoin="round"/>
<path d="M55.0751 35.7451C54.4801 36.6251 53.7701 37.4251 52.9751 38.1251" stroke="#1875ED" stroke-width="0.75" stroke-miterlimit="10" stroke-linecap="round" stroke-linejoin="round"/>
<path d="M51.2749 18.155C54.8399 20.345 57.2149 24.28 57.2149 28.765C57.2149 30.645 56.7999 32.425 56.0549 34.02" stroke="#1875ED" stroke-width="0.75" stroke-miterlimit="10" stroke-linecap="round" stroke-linejoin="round"/>
<path d="M34.54 21.6651C36.79 18.4351 40.53 16.3201 44.765 16.3201" stroke="#1875ED" stroke-width="0.75" stroke-miterlimit="10" stroke-linecap="round" stroke-linejoin="round"/>
<path d="M32.7651 25.4552C32.9301 24.8502 33.1401 24.2652 33.3951 23.7002" stroke="#1875ED" stroke-width="0.75" stroke-miterlimit="10" stroke-linecap="round" stroke-linejoin="round"/>
<path d="M33.2103 33.4C32.6353 31.97 32.3203 30.405 32.3203 28.77" stroke="#1875ED" stroke-width="0.75" stroke-miterlimit="10" stroke-linecap="round" stroke-linejoin="round"/>
<path d="M31.2553 40.82C30.7203 40.225 30.2303 39.59 29.7803 38.925" stroke="#1875ED" stroke-width="0.75" stroke-miterlimit="10" stroke-linecap="round" stroke-linejoin="round"/>
<path d="M36.6099 44.9351C35.1849 44.2151 33.8699 43.3101 32.6899 42.2551" stroke="#1875ED" stroke-width="0.75" stroke-miterlimit="10" stroke-linecap="round" stroke-linejoin="round"/>
<path d="M62.07 34.115C61.24 36.805 59.8 39.225 57.915 41.215" stroke="#1875ED" stroke-width="0.75" stroke-miterlimit="10" stroke-linecap="round" stroke-linejoin="round"/>
<path d="M60.0952 19.1201C61.8552 21.9101 62.8752 25.2201 62.8752 28.7651" stroke="#1875ED" stroke-width="0.75" stroke-miterlimit="10" stroke-linecap="round" stroke-linejoin="round"/>
<path d="M54.2451 13.3352C55.7201 14.2402 57.0501 15.3552 58.2051 16.6302" stroke="#1875ED" stroke-width="0.75" stroke-miterlimit="10" stroke-linecap="round" stroke-linejoin="round"/>
<path d="M33.21 14.8302C36.345 12.2252 40.375 10.6602 44.765 10.6602C47.37 10.6602 49.85 11.2102 52.09 12.2002" stroke="#1875ED" stroke-width="0.75" stroke-miterlimit="10" stroke-linecap="round" stroke-linejoin="round"/>
<path d="M27.6002 34.545C26.9902 32.73 26.6602 30.79 26.6602 28.77C26.6602 24.225 28.3352 20.075 31.1002 16.895" stroke="#1875ED" stroke-width="0.75" stroke-miterlimit="10" stroke-linecap="round" stroke-linejoin="round"/>
<path d="M21.0503 31.2202C20.9703 30.4152 20.9253 29.5952 20.9253 28.7702C20.9253 26.5352 21.2353 24.3652 21.8103 22.3152" stroke="#1875ED" stroke-width="0.75" stroke-miterlimit="10" stroke-linecap="round" stroke-linejoin="round"/>
<path d="M25.8551 43.285C23.6351 40.4 22.0601 36.99 21.3501 33.27" stroke="#1875ED" stroke-width="0.75" stroke-miterlimit="10" stroke-linecap="round" stroke-linejoin="round"/>
<path d="M28.0154 45.7301C27.6204 45.3401 27.2454 44.9401 26.8804 44.5251" stroke="#1875ED" stroke-width="0.75" stroke-miterlimit="10" stroke-linecap="round" stroke-linejoin="round"/>
<path d="M30.7803 48.0801C33.0853 49.7551 35.7053 51.0251 38.5353 51.7901" stroke="#1875ED" stroke-width="0.75" stroke-miterlimit="10" stroke-linecap="round" stroke-linejoin="round"/>
<path d="M68.5004 31.0701C68.0454 35.8101 66.2004 40.1501 63.3804 43.6651" stroke="#1875ED" stroke-width="0.75" stroke-miterlimit="10" stroke-linecap="round" stroke-linejoin="round"/>
<path d="M68.2852 24.8401C68.4952 26.1151 68.6052 27.4301 68.6052 28.7651" stroke="#1875ED" stroke-width="0.75" stroke-miterlimit="10" stroke-linecap="round" stroke-linejoin="round"/>
<path d="M65.9399 17.7952C66.2649 18.4202 66.5599 19.0602 66.8299 19.7152" stroke="#1875ED" stroke-width="0.75" stroke-miterlimit="10" stroke-linecap="round" stroke-linejoin="round"/>
<path d="M53.7051 6.65503C58.2351 8.49003 62.0751 11.675 64.7251 15.715" stroke="#1875ED" stroke-width="0.75" stroke-miterlimit="10" stroke-linecap="round" stroke-linejoin="round"/>
<path d="M34.9902 7.01505C37.9752 5.67005 41.2852 4.92505 44.7652 4.92505C46.1902 4.92505 47.5802 5.05005 48.9352 5.29005" stroke="#1875ED" stroke-width="0.75" stroke-miterlimit="10" stroke-linecap="round" stroke-linejoin="round"/>
<path d="M27.6201 12.2051C29.0001 10.7751 30.5601 9.51509 32.2601 8.46509" stroke="#1875ED" stroke-width="0.75" stroke-miterlimit="10" stroke-linecap="round" stroke-linejoin="round"/>
<path d="M24.25 16.615C24.76 15.76 25.32 14.935 25.925 14.155" stroke="#1875ED" stroke-width="0.75" stroke-miterlimit="10" stroke-linecap="round" stroke-linejoin="round"/>
<path d="M28.0152 61.7852L28.3002 62.1202C29.4052 63.4052 29.7302 65.1852 29.1502 66.7752L28.2052 69.3602L24.9302 65.5702" stroke="#1875ED" stroke-width="0.75" stroke-miterlimit="10" stroke-linecap="round" stroke-linejoin="round"/>
<path d="M23.4853 62.3301C23.2803 60.7701 23.6703 59.1601 24.6253 57.8501L26.8803 60.4651" stroke="#1875ED" stroke-width="0.75" stroke-miterlimit="10" stroke-linecap="round" stroke-linejoin="round"/>
<path d="M38.5352 46.0451V29.3151C38.5352 28.1351 38.8652 27.0301 39.4352 26.0901" stroke="#1875ED" stroke-width="0.75" stroke-miterlimit="10" stroke-linecap="round" stroke-linejoin="round"/>
<path d="M38.5352 62.3351V48.7451" stroke="#1875ED" stroke-width="0.75" stroke-miterlimit="10" stroke-linecap="round" stroke-linejoin="round"/>
<path d="M31.2554 55.49C32.4354 55.8 33.5404 56.465 34.3954 57.46L36.0754 59.44" stroke="#1875ED" stroke-width="0.75" stroke-miterlimit="10" stroke-linecap="round" stroke-linejoin="round"/>
<path d="M26.875 60.4652L24.625 57.8502C24.905 57.4652 25.235 57.1052 25.61 56.7852C26.565 55.9652 27.7 55.4852 28.86 55.3352" stroke="#1875ED" stroke-width="0.75" stroke-miterlimit="10" stroke-linecap="round" stroke-linejoin="round"/>
<path d="M28.8801 67.51L29.1501 66.77C29.7301 65.18 29.4051 63.4 28.3001 62.115L28.0151 61.78" stroke="#1875ED" stroke-width="0.75" stroke-miterlimit="10" stroke-linecap="round" stroke-linejoin="round"/>
<path d="M33.6651 75.6702L28.2051 69.3552" stroke="#1875ED" stroke-width="0.75" stroke-miterlimit="10" stroke-linecap="round" stroke-linejoin="round"/>
<path d="M38.535 81.3001L35.355 77.6201" stroke="#1875ED" stroke-width="0.75" stroke-miterlimit="10" stroke-linecap="round" stroke-linejoin="round"/>
<path d="M75.9253 64.645V81.3" stroke="#1875ED" stroke-width="0.75" stroke-miterlimit="10" stroke-linecap="round" stroke-linejoin="round"/>
<path d="M74.0249 48.7451C75.1949 49.8801 75.9249 51.4651 75.9249 53.2251V58.8401" stroke="#1875ED" stroke-width="0.75" stroke-miterlimit="10" stroke-linecap="round" stroke-linejoin="round"/>
<path d="M51 35.7451V49.7401C51 46.3001 53.79 43.5101 57.23 43.5101C58.95 43.5101 60.51 44.2051 61.635 45.3351C62.76 46.4651 63.46 48.0201 63.46 49.7401V53.2201C63.46 51.5001 64.155 49.9401 65.285 48.8151C66.415 47.6901 67.97 46.9901 69.69 46.9901C69.9 46.9901 70.11 47.0001 70.315 47.0201" stroke="#1875ED" stroke-width="0.75" stroke-miterlimit="10" stroke-linecap="round" stroke-linejoin="round"/>
<path d="M41.4453 24.0401C42.4053 23.4301 43.5453 23.0801 44.7703 23.0801C48.2103 23.0801 51.0003 25.8701 51.0003 29.3101V32.7351" stroke="#1875ED" stroke-width="0.75" stroke-miterlimit="10" stroke-linecap="round" stroke-linejoin="round"/>
<path d="M56.4102 81.3H74.9652C77.2502 81.3 79.1052 83.1551 79.1052 85.4401V95.07H68.6102" stroke="#1875ED" stroke-width="0.75" stroke-miterlimit="10" stroke-linecap="round" stroke-linejoin="round"/>
<path d="M48.71 81.3H52.91" stroke="#1875ED" stroke-width="0.75" stroke-miterlimit="10" stroke-linecap="round" stroke-linejoin="round"/>
<path d="M35.355 92.0401V85.4401C35.355 83.1551 37.21 81.3 39.495 81.3H43.21" stroke="#1875ED" stroke-width="0.75" stroke-miterlimit="10" stroke-linecap="round" stroke-linejoin="round"/>
<path d="M53.81 95.0701H35.355" stroke="#1875ED" stroke-width="0.75" stroke-miterlimit="10" stroke-linecap="round" stroke-linejoin="round"/>
<path d="M60.66 95.0701H57.23" stroke="#1875ED" stroke-width="0.75" stroke-miterlimit="10" stroke-linecap="round" stroke-linejoin="round"/>
<path d="M71.6899 85.8101C72.9999 85.8101 74.0649 86.8701 74.0649 88.1851C74.0649 89.4951 73.0049 90.5601 71.6899 90.5601C70.3799 90.5601 69.3149 89.5001 69.3149 88.1851C69.3149 88.0001 69.3349 87.8251 69.3749 87.6551" stroke="#1875ED" stroke-width="0.75" stroke-miterlimit="10" stroke-linecap="round" stroke-linejoin="round"/>
<path d="M41.4449 32.7402C40.5899 31.8902 40.0649 30.7102 40.0649 29.4102" stroke="#1875ED" stroke-width="0.75" stroke-miterlimit="10" stroke-linecap="round" stroke-linejoin="round"/>
<path d="M49.47 29.4102C49.47 32.0102 47.365 34.1152 44.765 34.1152C44.335 34.1152 43.915 34.0552 43.52 33.9502" stroke="#1875ED" stroke-width="0.75" stroke-miterlimit="10" stroke-linecap="round" stroke-linejoin="round"/>
<path d="M24.6251 57.8502L24.6201 57.8452" stroke="#1875ED" stroke-width="0.75" stroke-miterlimit="10" stroke-linecap="round" stroke-linejoin="round"/>
<path d="M28.2051 69.3552V69.3602" stroke="#1875ED" stroke-width="0.75" stroke-miterlimit="10" stroke-linecap="round" stroke-linejoin="round"/>
</g>
<defs>
<clipPath id="clip0_322_36988">
<rect width="58.83" height="90.795" fill="white" transform="translate(20.6001 4.6001)"/>
</clipPath>
</defs>
</svg>
