<svg width="48" height="48" viewBox="0 0 48 48" fill="none" xmlns="http://www.w3.org/2000/svg">
<rect width="48" height="48" rx="10" fill="#1875ED"/>
<path d="M29.8778 32.0902C28.1693 33.3315 26.1117 34 23.9999 34C21.8881 34 19.8305 33.3315 18.1221 32.0902M28.3836 15.0121C30.2817 15.9378 31.838 17.4407 32.8294 19.3053C33.8208 21.1699 34.1965 23.3005 33.9026 25.3917M14.0973 25.3916C13.8034 23.3004 14.1791 21.1698 15.1705 19.3052C16.162 17.4406 17.7182 15.9377 19.6163 15.012M23.4342 18.5657L18.5656 23.4343C18.3676 23.6323 18.2686 23.7313 18.2315 23.8455C18.1989 23.9459 18.1989 24.0541 18.2315 24.1545C18.2686 24.2687 18.3676 24.3677 18.5656 24.5657L23.4342 29.4343C23.6322 29.6323 23.7312 29.7313 23.8454 29.7684C23.9458 29.8011 24.054 29.8011 24.1544 29.7684C24.2686 29.7313 24.3676 29.6323 24.5656 29.4343L29.4342 24.5657C29.6322 24.3677 29.7312 24.2687 29.7683 24.1545C29.801 24.0541 29.801 23.9459 29.7683 23.8455C29.7312 23.7313 29.6322 23.6323 29.4342 23.4343L24.5656 18.5657C24.3676 18.3677 24.2686 18.2687 24.1544 18.2316C24.054 18.199 23.9458 18.199 23.8454 18.2316C23.7312 18.2687 23.6322 18.3677 23.4342 18.5657Z" stroke="white" stroke-width="2" stroke-linecap="round" stroke-linejoin="round"/>
</svg>
