<svg width="64" height="65" viewBox="0 0 64 65" fill="none" xmlns="http://www.w3.org/2000/svg">
<g clip-path="url(#clip0_37_13918)">
<path fill-rule="evenodd" clip-rule="evenodd" d="M32.1534 0.369157C24.5204 0.361399 17.134 3.07216 11.318 8.01568C5.50202 12.9592 1.63661 19.8123 0.414465 27.3469C-0.807683 34.8815 0.693321 42.6051 4.64848 49.1335C8.60366 55.6619 14.7544 60.5685 21.9986 62.9739C23.6154 63.2697 24.1874 62.2641 24.1874 61.4161C24.1874 60.5683 24.1874 58.6359 24.1874 55.9543C15.2156 57.9063 13.3227 51.6361 13.3227 51.6361C12.7275 49.6927 11.463 48.0231 9.7537 46.9233C6.85516 44.9515 9.99032 44.9515 9.99032 44.9515C11.0064 45.0951 11.9765 45.4679 12.8271 46.0419C13.6778 46.6159 14.3867 47.3757 14.9001 48.2643C15.3364 49.0553 15.9246 49.7525 16.631 50.3157C17.3373 50.8789 18.148 51.2971 19.0163 51.5461C19.8847 51.7953 20.7938 51.8705 21.6912 51.7675C22.5888 51.6645 23.4572 51.3853 24.2464 50.9459C24.3702 49.3237 25.0696 47.7993 26.2182 46.6473C19.0803 45.8389 11.5875 43.0783 11.5875 30.8729C11.5385 27.6845 12.7175 24.5993 14.8804 22.2561C13.9171 19.4839 14.0297 16.4509 15.1959 13.7577C15.1959 13.7577 17.8973 12.8901 24.0296 17.0506C29.2954 15.6048 34.8536 15.6048 40.1194 17.0506C46.2518 12.8901 48.9334 13.7577 48.9334 13.7577C50.1158 16.4224 50.2566 19.4336 49.3278 22.1969C51.4908 24.5401 52.6698 27.6253 52.6208 30.8137C52.6208 43.1573 45.1082 45.8587 37.9504 46.5881C38.718 47.3597 39.3106 48.2871 39.6882 49.3079C40.066 50.3285 40.2196 51.4183 40.1392 52.5035C40.1392 56.8021 40.1392 60.2725 40.1392 61.3175C40.1392 62.3627 40.711 63.1711 42.3476 62.8555C49.5094 60.3867 55.568 55.4661 59.4532 48.9631C63.3386 42.4601 64.8006 34.7931 63.5808 27.3167C62.361 19.8403 58.5382 13.0356 52.7876 8.1046C47.0368 3.17364 39.7284 0.433811 32.1534 0.369157Z" fill="#667085"/>
</g>
<defs>
<clipPath id="clip0_37_13918">
<rect width="64" height="64" fill="white" transform="translate(0 0.369141)"/>
</clipPath>
</defs>
</svg>
