<svg width="64" height="65" viewBox="0 0 64 65" fill="none" xmlns="http://www.w3.org/2000/svg">
<g clip-path="url(#clip0_37_13912)">
<path fill-rule="evenodd" clip-rule="evenodd" d="M0 32.3691C0 14.696 14.3269 0.369141 32 0.369141C49.6731 0.369141 64 14.696 64 32.3691C64 50.0423 49.6731 64.3691 32 64.3691C14.3269 64.3691 0 50.0423 0 32.3691Z" fill="#667085"/>
<path fill-rule="evenodd" clip-rule="evenodd" d="M31.0416 26.3759L31.1088 27.4831L29.9896 27.3476C25.9158 26.8279 22.3568 25.0652 19.335 22.1051L17.8578 20.6363L17.4773 21.7209C16.6715 24.1388 17.1862 26.6923 18.8651 28.4097C19.7605 29.3588 19.5589 29.4943 18.0146 28.9294C17.4773 28.7487 17.0072 28.6131 16.9626 28.6809C16.8058 28.839 17.343 30.8955 17.7683 31.7089C18.3502 32.8388 19.5366 33.946 20.8349 34.6014L21.9315 35.1211L20.6333 35.1438C19.3798 35.1438 19.335 35.1663 19.4694 35.6409C19.9171 37.1097 21.6854 38.6689 23.655 39.3468L25.0429 39.8214L23.8342 40.5444C22.0435 41.5839 19.9395 42.1715 17.8354 42.2167C16.8282 42.2393 16 42.3297 16 42.3975C16 42.6235 18.7307 43.8889 20.32 44.386C25.0877 45.8548 30.7506 45.2222 35.0035 42.7139C38.0253 40.9286 41.0469 37.3809 42.4571 33.946C43.2181 32.1156 43.9792 28.7713 43.9792 27.1668C43.9792 26.1273 44.0464 25.9918 45.2998 24.7489C46.0384 24.0259 46.7323 23.2348 46.8666 23.0089C47.0904 22.5796 47.068 22.5796 45.9266 22.9638C44.024 23.6417 43.7554 23.5513 44.6954 22.5343C45.3893 21.8113 46.2174 20.5006 46.2174 20.1164C46.2174 20.0487 45.8818 20.1617 45.5013 20.3651C45.0984 20.591 44.203 20.93 43.5315 21.1334L42.3229 21.5175L41.2261 20.7718C40.6216 20.3651 39.771 19.9131 39.3234 19.7775C38.1819 19.4611 36.436 19.5063 35.4064 19.8679C32.6085 20.8847 30.8402 23.506 31.0416 26.3759Z" fill="white"/>
</g>
<defs>
<clipPath id="clip0_37_13912">
<rect width="64" height="64" fill="white" transform="translate(0 0.369141)"/>
</clipPath>
</defs>
</svg>
