<svg width="64" height="64" viewBox="0 0 64 64" fill="none" xmlns="http://www.w3.org/2000/svg">
<g clip-path="url(#clip0_267_77909)">
<path fill-rule="evenodd" clip-rule="evenodd" d="M0 32C0 14.3269 14.3269 0 32 0C49.6731 0 64 14.3269 64 32C64 49.6731 49.6731 64 32 64C14.3269 64 0 49.6731 0 32Z" fill="#667085"/>
<path fill-rule="evenodd" clip-rule="evenodd" d="M37.8082 40.3514C38.6301 41.4372 39.6165 42.6657 39.6165 42.6657C45.6712 42.4657 48 38.323 48 38.323C48 29.123 44.0547 21.6658 44.0547 21.6658C40.1096 18.5802 36.3562 18.666 36.3562 18.666L35.9726 19.1231C40.6301 20.6087 42.7946 22.7516 42.7946 22.7516C39.9453 21.1231 37.1507 20.3231 34.548 20.0087C32.5754 19.7802 30.685 19.8374 29.0138 20.066C28.8702 20.066 28.7475 20.0878 28.6094 20.1122C28.5893 20.1158 28.5688 20.1194 28.548 20.1231C27.5891 20.2087 25.2603 20.5802 22.3288 21.9231C21.315 22.4087 20.7123 22.7516 20.7123 22.7516C20.7123 22.7516 22.9862 20.4945 27.9178 19.0087L27.6438 18.666C27.6438 18.666 23.8904 18.5802 19.9453 21.6658C19.9453 21.6658 16 29.123 16 38.323C16 38.323 18.3014 42.4657 24.3562 42.6657C24.3562 42.6657 25.3699 41.3801 26.1918 40.2943C22.7123 39.2086 21.3973 36.923 21.3973 36.923C21.3973 36.923 21.6712 37.123 22.1643 37.4086C22.1918 37.4372 22.2192 37.4657 22.2739 37.4943C22.315 37.523 22.3562 37.5444 22.3973 37.5657C22.4384 37.5871 22.4795 37.6086 22.5205 37.6372C23.2054 38.0372 23.8904 38.3514 24.5205 38.6086C25.6438 39.0657 26.9862 39.5228 28.548 39.8372C30.6027 40.2372 33.0138 40.3801 35.6438 39.8657C36.9315 39.6372 38.2466 39.2372 39.6165 38.6372C40.5754 38.2657 41.6438 37.723 42.7672 36.9515C42.7672 36.9515 41.3973 39.2943 37.8082 40.3514ZM27.6483 29.8415C26.099 29.8415 24.8758 31.3122 24.8758 33.1068C24.8758 34.9012 26.1262 36.3721 27.6483 36.3721C29.1978 36.3721 30.4208 34.9012 30.4208 33.1068C30.448 31.3122 29.1978 29.8415 27.6483 29.8415ZM37.5696 29.8415C36.0202 29.8415 34.7971 31.3122 34.7971 33.1068C34.7971 34.9012 36.0474 36.3721 37.5696 36.3721C39.1189 36.3721 40.3421 34.9012 40.3421 33.1068C40.3421 31.3122 39.1189 29.8415 37.5696 29.8415Z" fill="white"/>
</g>
<defs>
<clipPath id="clip0_267_77909">
<rect width="64" height="64" fill="white"/>
</clipPath>
</defs>
</svg>
