<svg width="56" height="56" viewBox="0 0 56 56" fill="none" xmlns="http://www.w3.org/2000/svg">
<rect x="4" y="4" width="48" height="48" rx="24" fill="#BCE0FD"/>
<path d="M22 22L24 20M24 20L22 18M24 20H22C19.7909 20 18 21.7909 18 24M34 34L32 36M32 36L34 38M32 36H34C36.2091 36 38 34.2091 38 32M29.4172 29.4172C30.1994 29.7908 31.0753 30 32 30C35.3137 30 38 27.3137 38 24C38 20.6863 35.3137 18 32 18C28.6863 18 26 20.6863 26 24C26 24.9247 26.2092 25.8006 26.5828 26.5828M30 32C30 35.3137 27.3137 38 24 38C20.6863 38 18 35.3137 18 32C18 28.6863 20.6863 26 24 26C27.3137 26 30 28.6863 30 32Z" stroke="#1875ED" stroke-width="2" stroke-linecap="round" stroke-linejoin="round"/>
<rect x="4" y="4" width="48" height="48" rx="24" stroke="#F1F9FF" stroke-width="8"/>
</svg>
