<svg width="64" height="64" viewBox="0 0 64 64" fill="none" xmlns="http://www.w3.org/2000/svg">
<rect width="64" height="64" rx="32" fill="#667085"/>
<path d="M8.41915 21.6134C8.63949 18.2212 11.3668 15.5627 14.7619 15.3945C19.6784 15.1509 26.7054 14.8572 32 14.8572C37.2946 14.8572 44.3216 15.1509 49.2381 15.3945C52.6332 15.5627 55.3605 18.2212 55.5808 21.6134C55.7919 24.8633 56 28.8623 56 32C56 35.1378 55.7919 39.1367 55.5808 42.3867C55.3605 45.7789 52.6332 48.4373 49.2381 48.6056C44.3216 48.8491 37.2946 49.1429 32 49.1429C26.7054 49.1429 19.6784 48.8491 14.7619 48.6056C11.3668 48.4373 8.63949 45.7789 8.41915 42.3867C8.20805 39.1367 8 35.1378 8 32C8 28.8623 8.20805 24.8633 8.41915 21.6134Z" fill="white"/>
<path d="M26.8569 25.1428V38.8571L40.5712 32L26.8569 25.1428Z" fill="#667085"/>
</svg>
