<svg width="48" height="48" viewBox="0 0 48 48" fill="none" xmlns="http://www.w3.org/2000/svg">
<rect width="48" height="48" rx="10" fill="#1875ED"/>
<path d="M14 14L16 16M34 14L32 16M34 34L32 32M14 34L16 32M14 28H15.5M20 14V15.5M34 20H32.5M28 34V32.5M30 28H33.5M28 14V18M14 20H18M20 34V30M23.4343 19.5657L19.5657 23.4343C19.3677 23.6323 19.2687 23.7313 19.2316 23.8455C19.1989 23.9459 19.1989 24.0541 19.2316 24.1545C19.2687 24.2687 19.3677 24.3677 19.5657 24.5657L23.4343 28.4343C23.6323 28.6323 23.7313 28.7313 23.8455 28.7684C23.9459 28.8011 24.0541 28.8011 24.1545 28.7684C24.2687 28.7313 24.3677 28.6323 24.5657 28.4343L28.4343 24.5657C28.6323 24.3677 28.7313 24.2687 28.7684 24.1545C28.8011 24.0541 28.8011 23.9459 28.7684 23.8455C28.7313 23.7313 28.6323 23.6323 28.4343 23.4343L24.5657 19.5657C24.3677 19.3677 24.2687 19.2687 24.1545 19.2316C24.0541 19.1989 23.9459 19.1989 23.8455 19.2316C23.7313 19.2687 23.6323 19.3677 23.4343 19.5657Z" stroke="white" stroke-width="2" stroke-linecap="round" stroke-linejoin="round"/>
</svg>
