<svg width="56" height="56" viewBox="0 0 56 56" fill="none" xmlns="http://www.w3.org/2000/svg">
<rect x="4" y="4" width="48" height="48" rx="24" fill="#BCE0FD"/>
<path d="M38 26H18M27 35L34.8 35C35.9201 35 36.4802 35 36.908 34.782C37.2843 34.5903 37.5903 34.2843 37.782 33.908C38 33.4802 38 32.9201 38 31.8V24.2C38 23.0799 38 22.5198 37.782 22.092C37.5903 21.7157 37.2843 21.4097 36.908 21.218C36.4802 21 35.9201 21 34.8 21H33M27 35L29 37M27 35L29 33M23 35H21.2C20.0799 35 19.5198 35 19.092 34.782C18.7157 34.5903 18.4097 34.2843 18.218 33.908C18 33.4802 18 32.9201 18 31.8V24.2C18 23.0799 18 22.5198 18.218 22.092C18.4097 21.7157 18.7157 21.4097 19.092 21.218C19.5198 21 20.0799 21 21.2 21H29M29 21L27 23M29 21L27 19" stroke="#1875ED" stroke-width="2" stroke-linecap="round" stroke-linejoin="round"/>
<rect x="4" y="4" width="48" height="48" rx="24" stroke="#F1F9FF" stroke-width="8"/>
</svg>
