<svg width="64" height="65" viewBox="0 0 64 65" fill="none" xmlns="http://www.w3.org/2000/svg">
<rect y="0.369141" width="64" height="64" rx="32" fill="#667085"/>
<path d="M18.8447 26.9086C18.4448 26.6229 18.2448 26.4801 18.0705 26.4616C17.8098 26.4338 17.5485 26.5683 17.4196 26.7966C17.3333 26.9492 17.3333 27.1922 17.3333 27.6782V36.3217C17.3333 37.395 17.3333 38.2808 17.3923 39.0024C17.4535 39.7519 17.5849 40.4408 17.9146 41.088C18.426 42.0915 19.2419 42.9074 20.2454 43.4187C20.8925 43.7484 21.5814 43.8798 22.3309 43.9411C23.0525 44 23.9383 44 25.0116 44H38.9884C40.0617 44 40.9475 44 41.6691 43.9411C42.4186 43.8798 43.1075 43.7484 43.7546 43.4187C44.7582 42.9074 45.574 42.0915 46.0854 41.088C46.4151 40.4408 46.5465 39.7519 46.6077 39.0024C46.6667 38.2808 46.6667 37.395 46.6667 36.3218V27.6782C46.6667 27.44 46.6667 27.3209 46.6449 27.2377C46.5462 26.8617 46.1374 26.6475 45.7721 26.7804C45.6912 26.8098 45.5921 26.8785 45.3937 27.0158L35.0709 34.1626C34.339 34.6709 33.6963 35.1172 32.9663 35.2941C32.3277 35.4489 31.6608 35.444 31.0246 35.2799C30.2972 35.0922 29.6612 34.6365 28.9369 34.1175L18.8447 26.9086Z" fill="white"/>
<path d="M45.5104 23.6916C45.7565 23.5212 45.8796 23.436 45.9552 23.299C46.0139 23.1926 46.0475 23.0241 46.034 22.9033C46.0167 22.7477 45.9506 22.645 45.8184 22.4396C45.3119 21.6529 44.5831 21.0034 43.7546 20.5813C43.1075 20.2516 42.4186 20.1202 41.6691 20.0589C40.9475 20 40.0617 20 38.9884 20H25.0116C23.9383 20 23.0525 20 22.3309 20.0589C21.5814 20.1202 20.8925 20.2516 20.2454 20.5813C19.5 20.9611 18.8557 21.5101 18.3658 22.1778C18.2117 22.3879 18.1346 22.4929 18.1092 22.6523C18.0894 22.7769 18.1171 22.9501 18.1749 23.0623C18.2488 23.2058 18.3769 23.2974 18.6332 23.4804L30.3334 31.8377C31.303 32.5303 31.5088 32.6508 31.6909 32.6978C31.9029 32.7525 32.1252 32.7541 32.3381 32.7025C32.5208 32.6582 32.7283 32.5408 33.708 31.8625L45.5104 23.6916Z" fill="white"/>
</svg>
