<svg width="48" height="48" viewBox="0 0 48 48" fill="none" xmlns="http://www.w3.org/2000/svg">
<rect width="48" height="48" rx="10" fill="#1875ED"/>
<path d="M21 28L24 25M24 25L27 28M24 25V32M34 21H14M17.5 30H17.2C16.0799 30 15.5198 30 15.092 29.782C14.7157 29.5903 14.4097 29.2843 14.218 28.908C14 28.4802 14 27.9201 14 26.8V19.2C14 18.0799 14 17.5198 14.218 17.092C14.4097 16.7157 14.7157 16.4097 15.092 16.218C15.5198 16 16.0799 16 17.2 16H30.8C31.9201 16 32.4802 16 32.908 16.218C33.2843 16.4097 33.5903 16.7157 33.782 17.092C34 17.5198 34 18.0799 34 19.2V26.8C34 27.9201 34 28.4802 33.782 28.908C33.5903 29.2843 33.2843 29.5903 32.908 29.782C32.4802 30 31.9201 30 30.8 30H30.5" stroke="white" stroke-width="2" stroke-linecap="round" stroke-linejoin="round"/>
</svg>
